<svg version="1.1" id="Layer_1" xmlns="http://www.w3.org/2000/svg" xmlns:xlink="http://www.w3.org/1999/xlink"
	 viewBox="0 0 512 512" xml:space="preserve">
<g>
	<g>
		<path d="M297.578,137.825V74.003V10.199C297.578,4.566,293.011,0,287.379,0h-62.757c-5.632,0-10.199,4.566-10.199,10.199v63.804
			v63.823c-30.787,4.904-54.39,31.639-54.39,63.785v300.19h-0.001c0,5.633,4.567,10.199,10.199,10.199h171.538
			c5.632,0,10.199-4.566,10.199-10.199V201.61C351.968,169.464,328.364,142.729,297.578,137.825z M234.82,20.398h42.358v43.406
			H234.82V20.398z M180.43,201.61c0-24.367,19.824-44.191,44.191-44.191c5.632,0,10.199-4.566,10.199-10.199V84.203h42.358v63.018
			c0,5.633,4.567,10.199,10.199,10.199c24.368,0,44.191,19.824,44.191,44.191v13.858H180.43V201.61z M331.57,491.602H180.43v-99.887
			h151.14V491.602z M331.57,371.316H180.43v-135.45h151.14V371.316z"/>
	</g>
</g>
<g>
	<g>
		<path d="M272.735,338.891h-3.137c-5.632,0-10.199,4.566-10.199,10.199c0,5.633,4.567,10.199,10.199,10.199h3.137
			c5.632,0,10.199-4.566,10.199-10.199C282.934,343.457,278.368,338.891,272.735,338.891z"/>
	</g>
</g>
<g>
	<g>
		<path d="M239.265,338.891h-35.563c-5.632,0-10.199,4.566-10.199,10.199c0,5.633,4.567,10.199,10.199,10.199h35.563
			c5.632,0,10.199-4.566,10.199-10.199C249.464,343.457,244.897,338.891,239.265,338.891z"/>
	</g>
</g>
</svg>
