<?xml version="1.0" encoding="UTF-8" standalone="no"?>
<svg
   version="1.0"
   width="1024.000000pt"
   height="1024.000000pt"
   viewBox="0 0 1024.000000 1024.000000"
   preserveAspectRatio="xMidYMid meet"
   id="svg246"
   sodipodi:docname="456554736_1042674790834917_4540427923295861674_n.svg"
   inkscape:version="1.2.2 (732a01da63, 2022-12-09)"
   xmlns:inkscape="http://www.inkscape.org/namespaces/inkscape"
   xmlns:sodipodi="http://sodipodi.sourceforge.net/DTD/sodipodi-0.dtd"
   xmlns="http://www.w3.org/2000/svg"
   xmlns:svg="http://www.w3.org/2000/svg">
  <defs
     id="defs250" />
  <sodipodi:namedview
     id="namedview248"
     pagecolor="#ffffff"
     bordercolor="#000000"
     borderopacity="0.25"
     inkscape:showpageshadow="2"
     inkscape:pageopacity="0.0"
     inkscape:pagecheckerboard="0"
     inkscape:deskcolor="#d1d1d1"
     inkscape:document-units="pt"
     showgrid="false"
     inkscape:zoom="0.64951136"
     inkscape:cx="979.96746"
     inkscape:cy="518.85159"
     inkscape:window-width="2560"
     inkscape:window-height="1351"
     inkscape:window-x="1911"
     inkscape:window-y="-9"
     inkscape:window-maximized="1"
     inkscape:current-layer="g244" />
  <g
     transform="translate(0.000000,1024.000000) scale(0.100000,-0.100000)"
     fill="#000000"
     stroke="none"
     id="g244">
    <path
       d="M7568 9855 c-38 -21 -62 -65 -35 -65 7 0 35 -14 63 -31 27 -18 141 -84 254 -147 113 -63 217 -123 231 -133 25 -18 27 -18 43 0 18 20 21 57 6 95 -11 30 -26 39 -275 181 -198 112 -240 127 -287 100z"
       id="path130" />
    <path
       d="M7421 9734 c-47 -40 -58 -103 -26 -155 6 -9 118 -79 250 -155 329 -189 337 -194 360 -194 66 0 130 99 105 160 -7 17 -27 38 -44 47 -28 14 -256 146 -474 274 -95 56 -127 60 -171 23z"
       id="path132" />
    <path
       d="M7149 9138 c-123 -216 -225 -398 -227 -403 -3 -11 84 -64 412 -252 l180 -103 29 47 c38 61 304 538 367 660 28 52 48 98 45 103 -6 10 -567 340 -578 340 -2 0 -105 -177 -228 -392z"
       id="path134" />
    <path
       d="M4411 9402 c-54 -27 -87 -78 -116 -177 -14 -49 -33 -96 -42 -102 -38 -29 -112 -7 -180 51 -65 54 -107 64 -167 38 -83 -37 -126 -126 -126 -264 0 -103 -25 -215 -49 -223 -43 -13 -87 25 -204 175 -60 78 -129 133 -187 150 -86 25 -124 3 -135 -79 -4 -28 -15 -61 -24 -72 l-17 -21 -62 33 c-88 46 -151 50 -225 14 -93 -43 -109 -103 -57 -206 16 -32 50 -87 75 -121 46 -63 55 -97 33 -116 -7 -5 -45 -19 -84 -31 -55 -16 -73 -26 -82 -46 -26 -57 -9 -88 124 -227 119 -124 144 -166 144 -237 0 -64 -24 -93 -138 -169 -99 -65 -196 -152 -218 -193 -59 -115 84 -275 301 -337 39 -11 83 -23 98 -27 45 -9 43 -30 -7 -86 -44 -48 -66 -105 -51 -128 4 -7 97 -11 280 -11 l274 0 20 44 c26 61 95 133 156 163 66 34 164 42 231 19 26 -9 48 -15 49 -13 1 1 8 18 15 37 44 114 152 195 270 202 22 1 39 5 38 9 -2 4 -54 60 -116 124 l-113 118 -75 -7 c-114 -9 -511 -71 -816 -126 -150 -27 -274 -48 -276 -46 -8 9 744 184 993 232 50 9 93 20 98 24 6 5 -356 349 -825 784 -71 65 -128 120 -128 122 0 3 78 -62 173 -143 517 -442 799 -675 807 -666 4 4 13 31 19 58 29 122 255 945 258 941 2 -2 -5 -44 -16 -92 -44 -190 -95 -430 -147 -689 l-54 -270 62 -59 c35 -32 117 -105 183 -162 l120 -104 6 70 c14 143 97 263 227 327 88 44 168 51 215 20 25 -16 30 -16 57 -2 50 26 42 64 -28 138 -84 90 -84 91 -71 120 6 14 27 33 45 43 19 10 34 23 34 28 0 5 -25 35 -55 67 -61 64 -69 93 -32 126 39 36 85 54 170 65 109 14 107 13 107 48 0 30 -31 103 -49 114 -5 3 -35 -6 -66 -20 -53 -24 -61 -26 -113 -15 -30 6 -66 18 -79 27 -42 27 -79 98 -97 186 -44 212 -60 274 -96 362 -62 153 -78 175 -147 210 -41 21 -70 20 -112 -2z"
       id="path136" />
    <path
       d="M5292 9050 c-32 -13 -40 -44 -34 -132 5 -87 -3 -99 -55 -81 -16 6 -34 8 -40 6 -23 -8 -14 -82 22 -173 43 -109 44 -140 8 -180 -22 -24 -43 -33 -102 -45 -98 -20 -161 -49 -161 -73 0 -10 27 -44 60 -75 33 -32 60 -62 60 -67 0 -5 -20 -23 -45 -41 -25 -18 -45 -38 -45 -45 0 -8 27 -43 59 -79 59 -65 91 -128 107 -209 6 -33 9 -37 28 -31 99 32 167 29 174 -7 2 -9 -8 -41 -21 -70 -34 -74 -40 -110 -27 -158 10 -36 15 -41 33 -37 38 9 152 59 155 68 15 39 171 283 216 338 l56 69 -55 103 c-30 56 -55 106 -55 109 0 33 -100 56 -462 106 -71 9 -128 20 -128 25 0 4 8 5 18 3 43 -9 523 -56 528 -52 2 3 -45 120 -107 259 -61 140 -113 261 -116 269 -2 8 50 -90 116 -219 66 -128 122 -236 125 -238 2 -3 91 48 198 112 279 170 280 167 6 -19 l-187 -128 66 -106 c54 -88 91 -146 109 -170 1 -2 47 26 101 62 145 96 288 156 434 180 21 4 42 13 49 21 7 8 11 15 9 16 -2 1 -21 3 -42 5 -47 4 -84 26 -99 60 -14 30 4 121 31 156 49 63 76 152 59 199 -21 60 -79 64 -178 13 -64 -33 -71 -34 -97 -22 -20 10 -31 24 -38 55 -29 118 -136 122 -225 8 -85 -110 -123 -99 -153 43 -14 63 -23 86 -44 102 -33 26 -75 26 -98 0 -26 -28 -41 -25 -78 16 -17 21 -46 43 -64 50 -37 16 -40 16 -71 4z"
       id="path138" />
    <path
       d="M6816 8547 c-85 -158 -168 -252 -247 -280 -24 -9 -94 -21 -154 -26 -241 -24 -446 -121 -606 -287 -86 -90 -141 -174 -286 -434 -66 -118 -173 -311 -239 -427 l-119 -212 -1170 -3 c-1588 -4 -1725 -4 -1735 2 -8 5 -30 99 -151 635 -95 422 -106 449 -213 536 -114 93 -197 107 -641 108 -284 1 -300 -3 -343 -75 -32 -54 -27 -137 11 -187 46 -61 74 -65 422 -70 340 -4 350 -6 374 -65 6 -15 42 -169 80 -342 39 -173 100 -445 136 -605 36 -159 86 -380 111 -490 25 -110 81 -355 124 -545 43 -190 111 -487 150 -660 39 -173 136 -596 215 -940 79 -344 205 -893 280 -1220 224 -981 234 -1022 256 -1068 54 -110 178 -204 307 -231 38 -8 692 -11 2276 -11 l2223 0 43 23 c49 26 90 90 90 140 0 52 -37 115 -84 142 l-43 25 -2224 0 c-2185 0 -2225 0 -2256 20 -40 24 -47 37 -68 130 -82 364 -115 513 -113 516 2 1 390 50 863 109 473 58 925 115 1005 125 80 10 278 35 440 54 1729 208 2392 293 2453 315 106 37 208 128 253 226 12 28 52 174 88 325 35 151 117 493 180 760 63 267 140 591 170 720 30 129 89 375 130 545 111 458 118 492 118 580 0 142 -62 275 -166 357 -113 90 -185 108 -429 108 l-178 0 15 22 c9 12 16 36 16 53 0 23 -8 35 -38 55 -20 14 -40 27 -44 28 -5 2 -8 -21 -8 -52 0 -30 -4 -66 -10 -80 l-10 -26 -330 0 c-224 0 -330 3 -330 10 0 6 6 23 14 38 26 52 57 198 63 303 11 187 -20 326 -115 519 -54 109 -57 119 -57 190 1 84 20 134 101 267 25 42 44 77 42 78 -2 1 -70 42 -153 90 -82 49 -214 126 -293 171 -78 46 -146 84 -150 84 -4 0 -25 -33 -46 -73z m-1130 -1158 c130 -105 405 -267 798 -473 l69 -36 -616 0 c-340 0 -617 3 -617 6 0 10 272 498 288 517 21 24 33 22 78 -14z m1394 -854 c0 -3 -87 -161 -194 -353 -181 -324 -258 -463 -673 -1202 -88 -157 -171 -305 -184 -330 -23 -43 -27 -45 -71 -48 -182 -12 -849 335 -1291 671 -127 96 -152 124 -145 160 2 12 127 237 276 500 150 264 272 481 272 483 0 2 -31 4 -70 4 l-69 0 -25 -42 c-13 -24 -107 -189 -208 -368 -539 -949 -714 -1260 -737 -1310 -22 -46 -26 -69 -26 -145 0 -82 3 -97 32 -156 38 -77 91 -130 189 -186 785 -455 996 -574 1074 -603 85 -32 200 -26 285 15 120 58 118 54 527 790 182 327 290 520 518 925 51 91 125 224 165 295 139 249 281 501 395 703 l115 202 652 -2 653 -3 26 -26 c30 -31 43 -80 33 -129 -8 -41 -45 -197 -129 -550 -33 -140 -122 -514 -196 -830 -74 -316 -168 -717 -209 -890 -41 -173 -83 -356 -95 -407 -26 -112 -57 -147 -137 -157 -26 -3 -379 -46 -783 -96 -404 -49 -1009 -124 -1345 -165 -335 -42 -864 -107 -1175 -145 -311 -38 -746 -92 -967 -120 -222 -27 -407 -50 -412 -50 -5 0 -17 35 -26 78 -10 42 -48 214 -87 382 -63 277 -100 440 -289 1265 -132 576 -163 713 -289 1261 -71 314 -130 574 -130 578 0 3 1069 6 2375 6 1306 0 2375 -2 2375 -5z"
       id="path140" />
    <path
       d="M3239 6393 c-19 -48 -4 -141 28 -187 47 -67 103 -99 177 -104 76 -5 126 9 172 51 52 44 77 101 78 172 2 102 18 95 -229 95 l-215 0 -11 -27z"
       id="path142" />
    <path
       d="M3740 6368 c1 -180 202 -288 357 -192 63 39 103 113 103 190 l0 54 -230 0 -230 0 0 -52z"
       id="path144" />
    <path
       d="M4246 6404 c-11 -29 7 -96 38 -142 75 -111 250 -128 350 -34 36 34 76 117 76 160 l0 32 -229 0 c-199 0 -230 -2 -235 -16z"
       id="path146" />
    <path
       d="M7686 6365 c30 -31 54 -60 54 -66 0 -5 17 4 38 20 47 39 111 61 173 61 42 0 49 3 49 20 0 19 -7 20 -184 20 l-184 0 54 -55z"
       id="path148" />
    <path
       d="M7382 6377 c-100 -38 -164 -145 -148 -250 5 -30 22 -61 60 -109 30 -37 56 -73 58 -80 3 -8 19 0 48 25 55 47 134 71 206 64 52 -5 53 -5 70 31 12 24 19 60 19 103 0 56 -4 73 -30 115 -43 69 -109 107 -189 111 -33 1 -76 -3 -94 -10z"
       id="path152" />
    <path
       d="M7850 6278 c-42 -25 -61 -45 -83 -88 -26 -49 -28 -62 -24 -123 4 -55 10 -77 34 -110 63 -90 158 -125 263 -97 56 15 134 91 149 147 29 103 -5 207 -87 267 -39 27 -53 31 -120 34 -72 3 -80 1 -132 -30z"
       id="path154" />
    <path
       d="M7122 6145 c-6 -14 -8 -25 -3 -25 5 0 16 -2 24 -5 10 -5 13 1 9 25 -5 37 -15 38 -30 5z"
       id="path158" />
    <path
       d="M4160 6141 c-54 -17 -92 -43 -120 -83 -17 -22 -30 -47 -30 -55 0 -20 -18 -16 -25 6 -8 27 -63 79 -105 100 -83 42 -182 32 -249 -26 -73 -62 -102 -146 -81 -233 17 -70 58 -122 121 -154 114 -56 239 -20 309 91 l28 44 22 -36 c28 -46 96 -92 154 -105 99 -22 207 30 255 125 78 151 -23 325 -193 332 -33 1 -72 -1 -86 -6z"
       id="path160" />
    <path
       d="M3099 6087 c-90 -48 -140 -156 -118 -255 22 -102 100 -169 207 -179 216 -20 338 245 181 394 -71 67 -186 84 -270 40z"
       id="path164" />
    <path
       d="M7064 6042 c-6 -4 -25 -34 -42 -67 -17 -33 -44 -83 -61 -111 l-30 -51 42 21 c51 25 168 34 224 16 21 -7 53 -23 71 -37 l32 -24 0 38 c-1 86 -77 182 -164 208 -57 17 -57 17 -72 7z"
       id="path166" />
    <path
       d="M7482 5929 c-67 -34 -122 -120 -122 -192 0 -178 178 -291 337 -212 164 82 156 330 -12 406 -56 26 -148 25 -203 -2z"
       id="path168" />
    <path
       d="M8012 5809 c-48 -14 -128 -95 -141 -144 -27 -98 -7 -172 63 -241 41 -40 64 -54 105 -64 170 -41 323 115 280 285 -16 63 -95 148 -154 164 -48 13 -107 13 -153 0z"
       id="path174" />
    <path
       d="M7056 5779 c-86 -21 -157 -96 -170 -180 -8 -48 1 -59 50 -59 70 0 204 -101 220 -167 8 -28 26 -29 73 -2 81 46 127 156 102 247 -31 119 -155 191 -275 161z"
       id="path176" />
    <path
       d="M3920 5691 c-74 -23 -118 -61 -148 -130 l-20 -44 -15 29 c-8 16 -30 43 -49 61 -109 105 -301 75 -368 -57 -59 -118 -12 -262 103 -316 126 -58 265 -9 319 113 l21 47 14 -30 c71 -139 258 -174 366 -69 50 48 68 87 74 155 15 158 -145 287 -297 241z"
       id="path178" />
    <path
       d="M6792 5566 c-14 -32 -13 -39 7 -27 7 5 11 19 9 32 -3 23 -3 23 -16 -5z"
       id="path182" />
    <path
       d="M6780 5449 c-92 -42 -134 -107 -134 -209 0 -170 165 -281 319 -216 116 49 175 190 126 302 -29 64 -55 92 -116 120 -63 30 -134 31 -195 3z"
       id="path184" />
    <path
       d="M7394 5438 c-42 -82 -140 -168 -191 -168 -20 0 -23 -5 -23 -37 0 -21 -3 -48 -6 -60 l-6 -23 46 26 c32 18 68 28 111 32 l64 5 11 49 c12 60 47 143 66 159 21 17 17 26 -17 38 -18 6 -33 11 -35 11 -2 0 -11 -15 -20 -32z"
       id="path186" />
    <path
       d="M7625 5449 c-82 -31 -143 -111 -152 -202 -5 -51 -4 -55 18 -62 35 -12 124 -100 144 -145 12 -26 27 -43 42 -46 41 -11 103 3 151 33 152 94 145 325 -11 405 -48 24 -148 33 -192 17z"
       id="path188" />
    <path
       d="M3717 5236 c-120 -43 -181 -145 -163 -271 19 -125 189 -222 303 -173 62 27 84 51 124 135 33 71 39 93 34 122 -17 89 -81 160 -167 186 -62 18 -81 18 -131 1z"
       id="path196" />
    <path
       d="M6471 4991 c-45 -82 -81 -153 -81 -158 0 -5 16 -7 35 -5 51 6 98 -5 139 -33 20 -14 39 -25 41 -25 3 0 17 24 32 53 47 92 35 204 -31 275 -48 54 -48 54 -135 -107z"
       id="path198" />
    <path
       d="M7277 5124 c-160 -51 -205 -269 -80 -385 48 -46 93 -63 163 -63 141 -1 240 107 228 248 -13 151 -162 248 -311 200z"
       id="path200" />
    <path
       d="M6826 4940 c-167 -50 -210 -278 -75 -393 116 -100 297 -61 360 78 22 47 24 133 6 178 -46 109 -177 171 -291 137z"
       id="path202" />
    <path
       d="M6369 4735 c-45 -14 -50 -20 -105 -116 l-58 -102 12 -55 c45 -213 343 -244 437 -46 88 186 -88 382 -286 319z"
       id="path204" />
    <path
       d="M3656 4701 c-94 -38 -148 -115 -148 -210 0 -97 41 -165 124 -207 50 -25 50 -25 72 -6 31 29 99 61 146 68 33 5 40 10 34 23 -29 69 -37 106 -38 181 -1 47 2 97 6 111 6 22 3 28 -20 38 -48 23 -122 23 -176 2z"
       id="path206" />
    <path
       d="M7226 4596 c-87 -32 -145 -121 -146 -219 0 -137 93 -231 230 -231 193 0 301 203 195 366 -52 79 -185 119 -279 84z"
       id="path208" />
    <path
       d="M6768 4436 c-122 -47 -181 -163 -144 -288 53 -184 306 -225 410 -68 60 90 58 202 -5 281 -56 71 -178 106 -261 75z"
       id="path210" />
    <path
       d="M3364 4276 c-47 -21 -105 -77 -125 -121 -10 -22 -19 -62 -19 -89 0 -138 84 -231 222 -243 51 -5 66 -2 123 26 36 18 65 37 65 42 0 5 -6 25 -14 44 -26 61 -29 119 -11 182 9 32 22 64 27 71 14 17 -22 55 -77 82 -48 23 -143 26 -191 6z"
       id="path212" />
    <path
       d="M3803 4246 c-127 -60 -167 -228 -83 -344 63 -88 207 -115 303 -59 26 16 60 47 75 69 24 37 27 51 27 128 0 77 -3 91 -27 128 -61 92 -193 127 -295 78z"
       id="path214" />
    <path
       d="M6330 4211 c-209 -68 -240 -340 -49 -435 89 -44 184 -33 257 30 59 51 85 104 85 179 0 91 -45 165 -125 206 -42 21 -131 32 -168 20z"
       id="path216" />
    <path
       d="M3620 3819 c-107 -43 -163 -170 -129 -292 13 -49 73 -115 124 -138 55 -25 154 -25 203 0 104 54 153 171 117 284 l-17 54 -53 6 c-57 6 -139 43 -169 76 -21 23 -38 25 -76 10z"
       id="path218" />
    <path
       d="M8970 8024 c-108 -112 -301 -246 -444 -309 -51 -23 -54 -26 -58 -65 -2 -23 -1 -43 2 -45 3 -2 59 17 125 41 131 49 285 122 412 199 l83 49 -21 22 c-13 13 -23 43 -28 78 -4 31 -12 61 -17 66 -6 6 -26 -7 -54 -36z"
       id="path220" />
    <path
       d="M8059 7902 c-37 -19 -64 -43 -86 -76 -29 -43 -33 -56 -33 -116 0 -38 4 -80 10 -94 15 -41 77 -102 125 -125 l45 -21 54 30 c36 21 75 33 118 38 61 7 63 8 86 49 31 57 33 152 4 209 -64 124 -202 169 -323 106z"
       id="path222" />
    <path
       d="M4813 7861 c-159 -55 -263 -213 -263 -402 0 -74 2 -82 35 -128 19 -27 40 -62 46 -79 l10 -30 46 26 c35 19 65 27 125 30 73 4 83 2 144 -28 72 -35 133 -102 154 -167 18 -55 21 -57 34 -31 7 13 67 120 134 239 67 119 122 219 122 222 0 3 -13 1 -29 -4 -16 -6 -46 -9 -67 -7 -30 2 -43 10 -60 36 -34 50 -39 118 -15 183 12 30 21 58 21 62 0 13 -91 -4 -132 -24 -79 -40 -155 -15 -179 59 -22 69 -37 74 -126 43z"
       id="path224" />
    <path
       d="M7615 7861 c-16 -4 -44 -15 -61 -24 -39 -20 -97 -85 -90 -101 43 -95 81 -204 93 -274 9 -48 18 -89 20 -91 2 -3 16 7 31 21 43 41 112 71 177 77 l60 6 28 54 c90 178 -66 378 -258 332z"
       id="path226" />
    <path
       d="M7927 7470 c-3 -13 2 -20 17 -24 13 -3 43 -21 68 -40 38 -29 47 -33 52 -20 7 18 0 34 -15 34 -6 0 -34 15 -64 34 -48 31 -54 33 -58 16z"
       id="path228" />
    <path
       d="M8209 7432 c-130 -68 -159 -247 -57 -351 65 -66 151 -90 234 -66 160 46 221 229 123 363 -63 85 -195 109 -300 54z"
       id="path230" />
    <path
       d="M7750 7385 c-101 -32 -160 -113 -160 -220 0 -73 24 -129 73 -172 48 -42 96 -56 175 -51 79 5 134 35 179 100 25 37 28 50 28 124 0 75 -2 86 -30 125 -61 87 -169 125 -265 94z"
       id="path232" />
    <path
       d="M4277 7356 c-96 -26 -167 -115 -167 -208 0 -58 40 -145 73 -158 12 -4 63 -7 112 -5 50 1 122 3 161 4 l72 1 21 49 c76 178 -86 368 -272 317z"
       id="path234" />
    <path
       d="M4725 7176 c-60 -27 -110 -81 -124 -133 -6 -21 -11 -41 -11 -45 0 -5 104 -8 230 -8 252 0 240 -3 218 61 -18 55 -46 88 -101 119 -67 38 -139 40 -212 6z"
       id="path236" />
    <path
       d="M3785 7126 c-50 -23 -86 -57 -118 -108 l-17 -28 224 0 225 0 -10 28 c-5 15 -23 42 -41 61 -67 72 -171 91 -263 47z"
       id="path238" />
    <path
       d="M4161 1315 c-247 -69 -390 -321 -325 -570 57 -222 289 -373 512 -335 193 32 345 175 383 360 46 222 -78 449 -291 531 -72 28 -205 34 -279 14z"
       id="path240" />
    <path
       d="M6849 1319 c-128 -30 -248 -128 -310 -253 -30 -63 -34 -80 -37 -172 -5 -130 18 -214 82 -301 136 -186 376 -242 586 -137 114 57 211 181 240 307 22 97 5 228 -41 319 -30 58 -122 153 -184 188 -90 52 -236 73 -336 49z"
       id="path242" />
  </g>
</svg>
