<svg
   version="1.0"
   viewBox="0 0 1024.000000 1024.000000"
   preserveAspectRatio="xMidYMid meet"
   id="svg68"
   xmlns="http://www.w3.org/2000/svg"
   >
  <g
     transform="translate(0.000000,1024.000000) scale(0.100000,-0.100000)"
     fill="#a26585"
     stroke="none"
     id="g66">
    <path
       d="M4740 9143 c-142 -70 -291 -256 -369 -457 -35 -89 -35 -94 -36 -241 0 -82 3 -162 8 -177 5 -21 4 -28 -7 -28 -22 0 -47 77 -58 180 -5 52 -11 105 -14 118 -7 37 -33 25 -55 -25 -22 -51 -30 -49 -49 12 -17 53 -47 85 -81 85 -25 0 -30 -6 -50 -60 -12 -33 -26 -63 -30 -66 -5 -3 -36 5 -69 17 -46 17 -72 20 -112 16 -66 -8 -73 -16 -58 -63 7 -21 9 -39 4 -41 -43 -15 -59 -31 -62 -60 -2 -24 2 -35 17 -45 29 -18 27 -25 -18 -47 -24 -13 -43 -31 -49 -49 -8 -23 -18 -31 -45 -36 -40 -7 -60 -27 -55 -53 3 -16 19 -19 128 -25 263 -13 303 -23 320 -73 6 -19 9 -39 5 -44 -8 -13 -142 -56 -220 -70 -75 -14 -250 -116 -250 -146 0 -18 8 -19 105 -21 58 -1 111 -3 118 -3 23 -2 12 -29 -18 -41 -76 -31 -150 -107 -150 -154 0 -16 5 -18 41 -12 l41 7 -25 -31 c-49 -58 -89 -199 -67 -239 l11 -22 31 26 32 27 16 -22 16 -21 26 21 c15 11 30 29 33 40 8 24 25 17 25 -11 0 -28 36 -24 56 5 8 14 22 51 31 83 18 73 30 85 50 56 11 -17 25 -23 52 -23 53 1 81 21 115 83 17 31 62 88 100 127 74 76 86 77 86 9 0 -42 -33 -96 -114 -186 -70 -77 -72 -93 -11 -93 25 0 45 -4 45 -8 0 -5 -10 -28 -21 -52 -12 -25 -24 -73 -27 -107 -4 -57 -3 -63 14 -63 11 0 30 7 42 16 21 14 22 14 22 -10 0 -59 54 -34 99 47 16 28 36 59 43 67 22 25 21 -17 -2 -89 -25 -78 -25 -82 -1 -112 10 -13 20 -45 23 -71 6 -55 31 -98 56 -98 9 0 28 9 42 20 14 11 28 20 32 20 3 0 20 -25 37 -56 l30 -57 -52 7 c-289 36 -817 173 -1165 302 -270 100 -709 304 -697 324 3 5 0 49 -6 98 -12 87 -12 92 20 213 33 125 49 158 71 144 9 -5 10 -44 6 -149 -6 -132 -5 -145 16 -196 32 -77 55 -75 81 5 11 33 22 62 24 65 9 10 32 -34 52 -98 26 -83 45 -110 64 -93 12 9 16 6 20 -16 13 -57 47 -71 47 -19 0 38 9 36 54 -12 36 -38 47 -44 69 -38 20 5 27 13 27 30 0 13 7 26 15 30 21 8 19 45 -5 83 l-19 32 22 3 c32 4 24 44 -16 86 l-32 34 32 -16 c39 -19 83 -21 83 -3 0 25 -58 104 -109 148 -28 24 -51 47 -51 51 0 3 28 6 63 5 55 -2 62 0 65 18 4 32 -48 80 -118 109 -104 44 -147 72 -159 107 -8 24 -8 30 2 26 143 -63 183 -72 172 -37 -11 33 37 25 90 -16 44 -33 95 -59 95 -48 0 2 -7 16 -16 30 -9 13 -14 27 -11 31 4 3 44 -6 90 -20 89 -29 127 -34 127 -16 0 13 -58 69 -71 69 -5 0 -9 5 -9 10 0 6 11 10 25 10 35 0 31 17 -10 41 -28 17 -34 25 -29 44 5 20 0 24 -58 38 -35 9 -72 18 -83 19 -36 6 -11 23 32 23 51 1 72 17 54 39 -7 8 -22 18 -33 22 -20 6 -19 7 7 28 39 31 28 53 -30 62 -33 5 -43 10 -36 17 17 17 13 47 -5 47 -9 0 -32 -10 -52 -22 l-35 -22 6 25 c4 13 9 33 12 44 3 11 1 27 -4 35 -9 13 -14 12 -38 -6 -15 -11 -54 -52 -86 -90 -58 -68 -84 -91 -93 -81 -11 11 32 74 130 191 32 38 36 49 26 61 -7 8 -21 15 -31 15 -10 0 -24 9 -33 21 -21 31 -47 20 -82 -34 l-31 -48 -7 39 c-3 22 -14 50 -25 63 -18 23 -20 23 -38 7 -18 -16 -19 -16 -31 2 -29 47 -77 3 -74 -67 2 -44 1 -45 -16 -29 -45 40 -60 -5 -32 -96 11 -35 20 -77 20 -94 0 -30 -23 -74 -34 -63 -13 13 -118 237 -136 290 -13 38 -20 85 -20 134 0 68 3 79 25 101 31 30 31 36 4 32 -34 -5 -62 -51 -67 -110 -6 -84 22 -179 93 -314 36 -67 65 -127 65 -133 0 -22 -24 -10 -59 31 -81 93 -102 112 -111 98 -6 -10 -15 -7 -41 14 -23 19 -41 26 -63 24 -28 -3 -31 -7 -34 -40 -4 -43 -12 -45 -67 -22 -38 15 -105 12 -105 -5 0 -4 13 -20 30 -34 39 -35 38 -47 -3 -47 -56 0 -77 -45 -36 -74 21 -14 20 -15 -19 -25 -22 -6 -45 -17 -51 -25 -13 -16 -4 -46 14 -46 7 0 18 -7 25 -15 10 -12 7 -19 -17 -39 -24 -22 -26 -27 -13 -36 21 -13 58 -12 105 5 21 8 42 12 45 9 3 -3 -17 -26 -44 -50 -30 -28 -50 -55 -52 -70 -1 -15 -13 -37 -26 -51 -20 -22 -23 -34 -22 -100 1 -92 15 -113 60 -90 16 8 56 36 88 61 33 25 66 46 74 46 15 0 14 -6 -12 -75 -21 -55 -21 -121 1 -133 9 -6 14 -16 10 -25 -5 -13 -42 6 -189 96 -286 176 -605 387 -683 453 l-30 25 24 19 c17 14 22 27 19 45 -3 14 -1 25 3 25 5 0 9 -4 9 -10 0 -5 4 -10 9 -10 16 0 18 33 4 80 -19 66 -17 68 25 22 47 -51 64 -54 55 -9 l-6 32 30 -27 c35 -33 43 -35 43 -7 0 20 1 20 32 -6 21 -18 38 -25 52 -21 12 3 24 6 28 6 4 0 4 7 1 17 -4 10 -2 14 5 9 25 -15 21 16 -5 39 -22 19 -24 24 -10 25 23 0 22 19 -5 47 l-21 23 24 0 c34 0 69 11 69 21 0 12 -49 35 -92 43 -20 4 -47 16 -60 27 l-23 20 28 -5 c105 -23 152 -15 105 18 -22 16 -22 16 14 16 44 0 56 15 33 40 -11 12 -13 20 -5 25 16 10 1 25 -26 25 -14 0 -22 4 -19 10 3 6 -5 10 -19 10 -16 0 -24 5 -21 13 3 6 1 18 -3 25 -7 10 -16 9 -48 -3 l-39 -16 27 25 c34 31 35 38 3 52 -20 10 -31 9 -59 -6 -38 -19 -46 -17 -46 12 0 28 -16 21 -30 -12 -17 -42 -20 -34 -9 24 5 27 7 52 4 54 -10 10 -49 -35 -71 -83 -22 -47 -24 -48 -25 -20 0 25 -2 27 -8 10 -5 -11 -6 -32 -4 -47 2 -16 0 -28 -5 -28 -14 0 -25 85 -17 131 4 25 3 39 -4 39 -23 0 -26 -86 -6 -185 6 -29 4 -27 -42 23 -26 28 -54 52 -62 52 -11 0 -11 -3 -1 -15 8 -9 9 -15 2 -15 -6 0 -14 5 -17 10 -3 6 -15 10 -26 10 -23 0 -25 -28 -4 -56 21 -28 19 -29 -30 -26 -35 3 -45 1 -45 -11 0 -9 5 -19 11 -23 8 -5 6 -10 -5 -16 -28 -15 -18 -25 37 -35 l52 -10 -60 -29 c-49 -23 -56 -29 -37 -32 23 -3 23 -4 6 -23 -15 -17 -15 -19 -1 -25 15 -5 15 -9 2 -34 -22 -43 -3 -44 54 -5 28 20 51 34 51 31 0 -2 -7 -23 -15 -46 -8 -23 -15 -51 -15 -62 0 -19 2 -19 35 6 19 15 33 21 31 14 -2 -7 -7 -27 -10 -45 -4 -25 -2 -31 9 -26 11 4 15 -2 15 -19 0 -14 8 -33 19 -42 16 -15 19 -15 24 -1 10 24 24 18 29 -12 3 -16 9 -37 13 -47 9 -22 -200 145 -321 256 -44 40 -109 98 -144 128 -36 30 -86 74 -112 97 -29 26 -57 43 -72 43 -62 0 -40 -42 105 -193 163 -172 435 -407 672 -580 l77 -57 -44 -83 c-58 -107 -112 -268 -133 -395 -9 -56 -20 -102 -25 -102 -4 0 -22 13 -39 28 -31 28 -32 32 -40 140 -10 130 -21 179 -50 216 -30 38 -47 32 -72 -21 l-21 -48 -8 55 c-5 32 -17 63 -28 75 -19 19 -20 19 -31 -13 l-11 -32 -26 53 c-33 64 -60 72 -92 27 -17 -23 -24 -52 -29 -108 l-6 -77 -33 52 c-37 57 -90 103 -120 103 -13 0 -24 -10 -31 -31 l-10 -30 -38 25 c-45 31 -93 35 -93 9 0 -17 11 -36 54 -98 20 -27 17 -35 -19 -49 -5 -2 7 -21 27 -43 21 -21 38 -42 38 -45 0 -3 -15 -6 -34 -6 -83 0 -125 -27 -111 -72 7 -22 49 -35 145 -44 57 -5 243 -55 270 -71 18 -11 11 -22 -21 -35 -46 -20 -81 -15 -172 24 -82 36 -180 55 -279 56 -59 0 -62 -14 -11 -56 l37 -31 -58 -7 c-90 -10 -175 -61 -148 -88 9 -9 29 -9 83 0 40 7 73 11 75 9 2 -2 -20 -19 -49 -38 -28 -19 -58 -46 -67 -61 -14 -26 -13 -29 7 -50 l22 -21 -59 -64 c-94 -100 -83 -116 49 -73 163 54 197 33 59 -36 -94 -46 -167 -106 -194 -156 -14 -27 -14 -28 10 -28 59 0 59 -10 2 -70 -59 -61 -79 -106 -55 -121 31 -20 127 15 200 72 20 16 40 29 43 29 3 0 6 -16 6 -36 0 -19 5 -44 10 -54 9 -16 15 -17 40 -8 36 12 102 85 127 139 20 43 25 46 42 25 9 -11 9 -20 2 -35 -26 -47 -2 -42 103 24 48 30 90 55 94 55 4 0 46 19 94 42 49 23 91 39 94 36 9 -10 -34 -86 -74 -130 -20 -23 -71 -65 -113 -95 -126 -88 -178 -154 -148 -189 13 -16 22 -16 141 2 25 4 38 2 38 -6 0 -6 -31 -44 -69 -84 -80 -85 -107 -148 -90 -211 6 -19 15 -35 22 -35 7 0 32 14 57 31 71 48 140 81 140 67 0 -6 -20 -37 -44 -67 -73 -94 -95 -158 -64 -189 14 -14 57 -16 91 -3 l25 10 -1 -77 c0 -81 14 -142 38 -162 26 -22 64 15 105 103 21 45 42 94 45 110 9 35 16 34 39 -4 21 -36 41 -35 70 4 18 24 21 44 22 124 2 117 13 133 47 67 43 -84 82 -106 124 -69 26 21 28 29 26 85 -2 56 -1 62 22 72 20 9 25 19 25 49 0 20 -8 57 -19 81 -10 24 -21 75 -25 113 l-7 70 22 -27 c36 -48 54 -32 74 69 7 37 -10 75 -66 147 -49 61 -50 81 -5 96 28 9 40 8 65 -5 57 -29 62 -47 68 -240 7 -191 10 -201 59 -174 32 17 40 5 49 -66 9 -71 24 -115 40 -115 19 0 53 46 67 91 6 22 14 39 18 39 3 0 12 -39 19 -87 6 -47 19 -102 27 -121 13 -32 16 -34 29 -21 9 8 19 35 23 60 l8 44 24 -45 c45 -81 90 -60 90 42 0 32 4 58 9 58 30 0 6 113 -28 134 -23 15 -9 26 33 26 26 0 48 6 56 15 39 47 -72 214 -224 339 -46 38 -72 79 -61 96 6 10 105 -64 229 -172 106 -92 170 -121 220 -102 26 10 19 37 -24 94 -22 29 -38 55 -36 57 1 2 26 -2 54 -9 29 -6 55 -9 58 -6 12 13 -29 70 -79 109 -28 23 -54 45 -55 50 -2 5 12 9 32 9 19 0 37 4 40 9 3 5 -17 26 -46 46 l-52 38 35 18 c54 27 66 45 45 68 -24 26 -149 77 -226 92 -106 20 -134 28 -160 49 -19 14 -22 22 -13 31 9 9 38 5 125 -15 137 -32 169 -33 194 -5 18 20 18 21 -1 35 -10 8 -23 14 -28 14 -4 0 -5 5 -2 10 3 6 16 10 29 10 13 0 37 5 55 11 43 15 40 49 -7 63 -25 7 -31 13 -27 28 5 15 1 18 -23 18 -22 0 -31 6 -35 21 -5 19 -11 21 -44 15 -83 -14 -78 -17 -75 41 3 40 0 54 -11 59 -18 6 -52 -9 -85 -39 -30 -28 -28 -11 8 65 31 66 37 93 21 103 -18 11 -152 -49 -185 -82 -17 -18 -34 -33 -38 -33 -5 0 -8 15 -8 33 0 18 -6 41 -13 51 -21 29 -52 11 -86 -48 -38 -65 -103 -140 -155 -178 -44 -31 -92 -39 -82 -12 3 9 17 60 31 114 43 168 111 333 165 398 l19 23 258 -172 c544 -363 1046 -613 1591 -793 45 -15 82 -30 82 -32 0 -2 -24 -29 -52 -60 -74 -77 -123 -155 -160 -252 -34 -90 -46 -97 -81 -50 -20 27 -20 31 -6 180 17 188 18 243 1 260 -16 16 -42 1 -57 -30 -12 -27 -25 -29 -25 -4 0 10 -6 27 -14 38 -22 29 -38 6 -45 -68 l-7 -63 -28 55 c-87 169 -116 182 -116 49 0 -65 -6 -70 -51 -39 -31 23 -123 38 -132 23 -4 -5 1 -33 10 -61 9 -28 14 -55 10 -59 -4 -3 -23 12 -43 35 -19 23 -44 42 -54 42 -25 0 -43 -35 -36 -66 7 -28 4 -29 -30 -8 -17 12 -28 14 -36 6 -14 -14 -2 -46 33 -83 16 -17 28 -32 27 -33 -2 -1 -15 -8 -30 -15 -37 -19 -45 -47 -21 -80 18 -23 28 -26 87 -29 80 -3 84 -19 10 -38 -150 -38 -276 -135 -222 -171 7 -4 30 -15 52 -24 l40 -16 -50 -36 c-27 -20 -60 -39 -74 -42 -30 -8 -60 -33 -60 -52 0 -7 16 -21 35 -30 l34 -16 -39 -43 c-43 -46 -61 -104 -40 -129 7 -8 18 -15 24 -15 7 0 80 34 163 75 198 99 333 145 333 115 0 -18 -82 -100 -124 -125 -23 -13 -68 -31 -101 -40 -92 -23 -125 -36 -125 -46 0 -5 9 -9 20 -9 11 0 20 -4 20 -10 0 -5 -4 -10 -9 -10 -21 0 -71 -54 -80 -86 -14 -50 -5 -64 40 -64 l38 0 -19 -42 c-12 -26 -20 -65 -20 -101 0 -66 13 -78 63 -59 29 11 29 10 23 -16 -3 -15 -8 -37 -12 -49 -5 -19 -2 -23 15 -23 25 0 25 -3 6 -77 -17 -67 -19 -136 -5 -164 22 -40 69 -15 91 49 9 27 13 30 29 20 41 -26 74 25 93 145 6 37 13 67 17 67 3 0 16 -13 28 -30 27 -37 46 -38 68 -5 14 21 15 40 9 110 -4 54 -3 85 3 85 5 0 12 -7 16 -15 3 -9 18 -15 35 -15 22 0 37 10 60 37 36 44 36 44 15 -59 -21 -104 -16 -207 12 -245 38 -51 66 -40 142 57 28 35 48 14 61 -68 18 -103 39 -159 72 -187 37 -30 55 -32 71 -5 17 27 22 25 37 -15 14 -39 55 -72 99 -81 42 -8 67 29 57 83 l-7 38 31 -29 c28 -26 31 -27 37 -11 10 24 -11 101 -37 136 -23 33 -20 35 22 13 60 -31 90 7 69 86 -13 50 -31 80 -77 133 -22 24 -33 47 -33 67 l0 30 38 -15 c20 -9 47 -23 59 -31 34 -22 46 -18 41 16 -4 26 -1 30 19 30 13 0 23 4 23 10 0 5 -40 41 -88 79 -76 60 -182 168 -182 185 0 3 20 -5 44 -18 25 -13 75 -29 113 -35 37 -6 98 -19 135 -28 37 -9 70 -14 73 -12 11 12 -39 135 -64 156 -38 31 -20 38 34 14 64 -28 105 -28 105 0 0 17 4 20 23 15 56 -17 104 -18 136 -1 26 13 30 19 21 30 -9 11 -7 18 9 34 12 12 21 26 21 31 0 14 -60 50 -82 50 -22 0 -22 4 -2 35 15 22 14 24 -10 40 -13 9 -46 20 -73 24 l-48 8 59 26 c44 20 57 31 52 43 -3 8 -6 17 -6 20 0 2 -32 20 -72 40 -77 39 -77 39 -207 10 -81 -18 -142 -18 -148 1 -3 7 11 14 34 17 50 8 292 65 321 77 33 12 24 41 -15 53 -27 7 -32 13 -27 31 8 31 -9 39 -51 24 -19 -7 -37 -10 -40 -7 -13 13 8 81 26 85 11 3 19 9 19 13 0 17 -29 28 -92 32 -51 4 -76 1 -108 -13 -62 -28 -66 -26 -66 29 1 41 -2 47 -21 50 -15 2 -36 -10 -67 -41 -36 -37 -46 -42 -51 -29 -4 12 -25 -13 -75 -89 -62 -97 -93 -129 -108 -114 -8 8 53 129 104 207 25 36 71 89 103 117 51 45 62 50 84 42 120 -46 602 -150 882 -191 83 -12 165 -25 183 -28 l33 -7 -64 -48 c-116 -88 -167 -179 -167 -296 0 -69 19 -112 99 -228 50 -72 67 -107 93 -198 30 -99 33 -122 33 -240 0 -109 -4 -141 -23 -195 -32 -93 -46 -112 -76 -99 -38 18 -46 51 -46 184 0 68 -4 126 -10 130 -5 3 -17 -9 -26 -27 l-17 -33 -13 30 c-7 17 -13 35 -14 41 0 20 -38 46 -61 42 -20 -3 -39 -26 -52 -63 -2 -5 -15 2 -28 17 -39 44 -61 41 -78 -11 l-14 -44 -13 38 c-15 46 -28 59 -48 52 -13 -5 -16 -23 -16 -82 l0 -75 -24 15 c-58 38 -118 36 -83 -3 16 -18 25 -45 17 -50 -3 -2 -22 4 -42 12 -53 23 -88 21 -88 -4 0 -14 -7 -20 -22 -20 -32 0 -52 -15 -45 -33 3 -8 28 -27 55 -42 36 -20 51 -35 55 -54 3 -14 4 -27 3 -29 -2 -1 -19 5 -40 13 -36 15 -36 15 -46 -10 -6 -15 -10 -30 -10 -34 0 -5 -17 -11 -38 -14 -21 -4 -46 -13 -57 -21 -17 -13 -19 -18 -9 -45 10 -24 9 -33 -3 -42 -26 -22 -35 -49 -22 -65 9 -11 9 -17 -1 -29 -21 -25 -4 -29 67 -17 38 7 104 15 148 18 63 6 93 14 142 41 35 18 68 33 74 33 6 0 -11 -25 -37 -55 -52 -62 -106 -91 -173 -93 -93 -4 -164 -71 -90 -86 17 -3 42 -6 55 -6 13 0 24 -4 24 -9 0 -11 -72 -75 -135 -119 -55 -40 -54 -58 4 -54 34 2 41 -1 41 -16 0 -11 -9 -27 -20 -37 -31 -28 -79 -108 -86 -145 -8 -35 -4 -36 50 -14 16 6 18 4 11 -12 -12 -28 -12 -66 1 -71 18 -6 107 61 139 105 34 46 55 53 55 20 1 -119 71 -75 165 102 45 85 70 118 80 108 2 -2 -7 -31 -20 -64 -18 -44 -25 -78 -25 -134 0 -41 -4 -90 -9 -107 -5 -18 -7 -41 -4 -53 8 -29 49 -37 73 -15 28 25 33 15 15 -35 -8 -23 -16 -61 -17 -84 -3 -35 0 -41 17 -41 13 0 23 -10 30 -30 6 -16 18 -31 28 -33 26 -5 73 43 93 94 21 55 35 48 27 -13 -5 -37 -3 -45 8 -41 27 9 48 64 60 156 12 97 18 103 39 40 19 -62 59 -48 60 20 1 22 7 14 29 -34 16 -34 33 -64 39 -67 13 -9 62 63 62 92 0 12 -13 56 -30 98 -16 41 -30 79 -30 84 0 15 19 10 60 -17 22 -15 43 -24 46 -21 4 3 -10 44 -30 89 -40 95 -74 213 -63 224 10 10 42 -21 77 -77 17 -26 43 -55 57 -64 l26 -17 -5 61 c-5 74 8 76 32 5 39 -113 78 -150 72 -68 -2 37 -2 38 13 20 8 -11 15 -25 15 -32 0 -15 39 -64 50 -64 15 0 40 56 40 89 0 39 12 45 44 20 34 -27 46 -17 46 35 0 50 -32 104 -73 124 -36 17 -34 30 6 34 28 3 32 7 35 34 2 24 -4 38 -29 62 -29 29 -31 32 -12 32 11 0 26 7 33 16 20 23 -1 37 -98 68 -78 24 -85 25 -114 10 -36 -19 -56 -7 -39 24 8 15 25 21 73 26 80 9 146 38 188 81 44 45 36 70 -20 61 -48 -8 -50 2 -9 48 17 20 27 40 23 47 -10 17 -137 6 -168 -15 -37 -24 -39 -20 -11 24 26 41 31 60 17 60 -4 0 -14 -6 -21 -12 -10 -11 -15 -9 -26 5 -12 17 -15 16 -49 -14 -33 -29 -38 -30 -49 -15 -16 22 -28 12 -92 -72 -40 -54 -81 -88 -93 -77 -2 1 8 27 22 58 29 67 56 181 56 239 0 51 -43 300 -59 341 -6 15 -38 68 -71 118 -67 98 -90 152 -90 207 0 123 114 242 296 308 59 22 81 24 233 24 l168 0 -16 -50 c-10 -31 -21 -48 -28 -45 -13 4 -17 -7 -14 -32 3 -19 -16 -16 -31 5 -14 21 -68 58 -68 48 0 -4 7 -23 15 -43 8 -19 15 -37 15 -39 0 -2 -19 3 -41 11 -63 23 -73 20 -65 -15 5 -28 3 -30 -24 -30 -33 0 -40 -14 -12 -25 14 -6 13 -9 -12 -22 -25 -13 -27 -17 -13 -25 10 -5 35 -12 58 -16 55 -9 51 -26 -8 -32 -56 -7 -108 -32 -123 -60 -11 -21 -7 -25 34 -32 31 -5 29 -26 -3 -33 -42 -9 -81 -42 -81 -69 0 -12 -7 -31 -15 -42 -23 -30 -18 -37 21 -31 l35 6 -30 -35 c-28 -31 -41 -64 -25 -64 3 0 61 29 129 65 67 36 127 65 133 65 7 0 5 -14 -4 -37 -12 -31 -28 -45 -82 -74 -65 -34 -89 -64 -57 -71 13 -2 12 -9 -10 -38 -33 -44 -30 -76 6 -73 25 1 26 0 19 -38 -8 -42 6 -73 30 -67 9 2 14 -3 11 -12 -10 -47 -13 -130 -3 -130 15 0 40 27 58 62 11 21 19 27 23 19 14 -22 35 18 35 70 l1 50 27 -33 27 -33 1 43 c0 23 9 60 20 82 16 32 18 47 11 85 -6 31 -5 45 2 42 20 -6 35 -71 36 -148 2 -157 49 -187 91 -56 6 20 15 35 20 32 4 -3 13 -35 20 -72 20 -116 45 -154 79 -120 11 10 15 8 25 -7 46 -77 99 -101 112 -51 3 14 3 32 0 40 -4 11 -2 14 6 9 8 -5 9 1 4 21 -7 26 -5 27 19 21 34 -9 33 8 -5 67 -16 26 -30 50 -30 53 0 3 14 3 30 -1 17 -4 30 -4 30 0 0 16 -33 80 -55 107 -35 41 -24 49 32 22 80 -38 73 -22 -49 125 -71 83 -77 122 -10 58 21 -19 48 -40 61 -47 26 -13 26 -18 3 58 -19 60 14 33 62 -50 21 -37 33 -48 51 -48 16 0 25 6 25 15 0 20 13 19 52 -5 59 -36 86 -21 52 28 -11 17 -12 22 -2 22 7 0 -2 14 -19 32 l-31 31 21 18 c31 25 12 41 -61 54 -31 6 -57 15 -57 20 0 6 28 11 63 13 34 2 62 7 62 13 0 24 -175 74 -234 66 -25 -3 -32 19 -9 27 9 4 52 10 95 13 90 7 120 22 100 50 -7 10 -18 31 -25 46 -6 15 -22 30 -35 34 -20 5 -22 10 -16 39 5 29 4 34 -14 34 -11 0 -39 -7 -62 -15 -23 -8 -56 -15 -72 -15 -28 0 -29 1 -22 38 l6 37 -45 -44 c-43 -42 -45 -43 -49 -20 -3 21 -5 20 -21 -16 -11 -22 -28 -59 -39 -82 -26 -56 -52 -59 -43 -5 13 77 35 139 66 185 48 74 66 83 166 90 48 4 155 18 236 32 82 14 153 25 158 25 14 0 -28 -79 -68 -128 -19 -23 -61 -60 -94 -83 -38 -26 -59 -47 -59 -59 0 -28 26 -25 86 10 69 39 128 109 172 202 32 66 41 78 67 84 164 33 498 121 566 148 21 9 180 -158 228 -237 37 -62 75 -154 86 -205 6 -29 5 -33 -12 -30 -11 2 -34 34 -58 79 -23 41 -52 91 -65 110 -32 45 -176 189 -190 189 -18 0 -29 -47 -23 -100 7 -62 -1 -63 -87 -18 -72 37 -158 49 -179 24 -12 -15 -7 -43 26 -132 3 -7 -17 -11 -57 -10 -37 0 -64 -4 -68 -11 -4 -6 -32 -13 -62 -15 -43 -2 -56 -7 -58 -21 -3 -13 6 -22 27 -30 38 -14 39 -20 4 -33 l-26 -9 24 -29 c22 -25 35 -29 95 -35 71 -7 169 -51 161 -74 -7 -22 -100 -33 -206 -24 -56 5 -106 6 -109 2 -9 -8 24 -34 61 -47 29 -11 35 -26 15 -33 -138 -48 -168 -67 -168 -110 0 -13 8 -28 17 -33 14 -8 15 -14 4 -40 -7 -17 -10 -36 -6 -41 8 -14 71 -14 97 0 37 20 33 -3 -7 -34 -83 -65 -145 -133 -145 -160 0 -26 29 -45 50 -32 14 9 13 5 -10 -40 -53 -103 1 -145 102 -80 37 24 37 24 43 4 5 -16 13 -20 32 -16 19 4 23 1 17 -12 -36 -84 28 -66 178 52 37 29 109 75 160 101 88 45 93 47 96 27 6 -38 -50 -121 -141 -207 -94 -90 -106 -116 -52 -122 17 -2 54 1 83 8 30 6 55 10 57 8 3 -2 -16 -29 -41 -58 -83 -99 -117 -206 -78 -244 21 -22 28 -20 66 13 30 26 89 61 103 61 12 0 3 -20 -26 -56 -68 -84 -99 -195 -64 -224 14 -12 60 -10 95 4 13 5 15 -6 15 -71 0 -98 17 -143 54 -143 23 0 34 13 79 89 29 49 58 103 65 120 6 17 14 31 17 31 3 -1 14 -15 25 -33 14 -22 28 -32 45 -32 39 0 52 37 45 133 -4 73 -2 89 20 141 13 33 27 78 31 100 4 23 10 41 15 41 4 0 22 -29 38 -64 17 -35 38 -69 46 -76 23 -19 63 -4 81 32 14 27 14 44 5 132 -7 55 -14 125 -17 154 l-6 54 25 -17 c24 -15 26 -15 36 4 14 26 14 87 -1 114 -6 12 -29 43 -50 68 -28 33 -38 54 -38 80 0 40 10 79 19 79 3 0 20 -26 37 -58 17 -31 50 -90 74 -131 37 -62 45 -83 47 -135 4 -106 13 -220 19 -244 4 -20 9 -23 29 -18 22 6 25 3 25 -23 0 -39 22 -57 42 -33 8 9 20 32 28 50 7 17 16 32 20 32 4 0 10 -32 12 -71 6 -82 18 -101 47 -75 18 17 20 16 36 -12 10 -16 27 -34 38 -42 17 -10 22 -10 33 4 18 25 26 99 18 163 -6 52 -5 56 12 49 38 -15 39 -12 37 80 l-2 92 40 -5 c64 -9 61 0 -73 199 -20 30 -38 63 -40 73 -7 39 21 22 62 -39 47 -69 84 -97 130 -98 56 -2 80 48 54 111 -18 43 -18 43 8 39 31 -4 32 13 4 54 l-24 36 50 4 c66 7 76 18 56 62 -13 26 -33 42 -85 67 -56 27 -64 34 -43 36 54 7 70 14 70 29 0 24 -53 68 -100 84 -45 15 -60 34 -41 53 19 19 12 36 -21 57 -43 26 -77 25 -178 -5 -96 -29 -98 -29 -82 -13 6 6 64 25 129 42 101 27 118 34 118 51 0 15 -7 20 -30 21 -16 1 -50 2 -75 3 l-45 2 78 40 c42 21 77 44 77 49 0 6 -13 13 -30 17 -36 7 -36 6 -9 50 40 64 -12 79 -148 44 -40 -11 -73 -17 -73 -16 0 2 9 20 21 39 20 34 20 36 3 43 -10 4 -32 -2 -53 -13 l-36 -20 3 41 c5 53 -12 95 -37 95 -11 0 -33 -12 -50 -26 -34 -28 -36 -27 -21 10 19 51 -19 74 -67 41 -21 -15 -22 -14 -35 31 -15 53 -42 78 -58 54 -18 -28 -41 -114 -61 -235 -23 -137 -48 -199 -89 -220 -36 -18 -39 -14 -56 79 -21 110 -83 223 -177 323 -44 46 -78 85 -76 88 3 2 74 31 159 65 85 34 228 97 318 141 89 43 190 89 225 101 71 24 157 39 157 26 0 -21 -46 -97 -85 -140 -48 -54 -70 -116 -69 -198 1 -60 16 -100 39 -100 12 0 15 18 15 89 0 49 4 100 9 113 5 13 33 50 62 83 29 33 63 83 76 111 13 29 31 54 41 56 25 7 82 -2 82 -13 0 -5 -25 -28 -55 -52 -54 -41 -65 -60 -45 -72 18 -11 99 44 116 78 22 43 20 42 49 23 14 -9 36 -41 49 -70 39 -89 70 -90 43 -2 -20 62 -51 106 -76 106 -9 0 -32 11 -51 25 -22 16 -47 25 -72 25 l-38 0 7 48 c3 26 10 49 16 51 29 11 223 167 299 240 87 83 90 88 109 160 11 40 18 75 16 77 -2 2 -60 -35 -128 -82 -68 -48 -141 -97 -161 -110 l-37 -24 9 26 c6 14 10 46 10 72 l0 46 20 -22 c12 -12 25 -22 30 -22 16 0 11 45 -10 95 -11 26 -20 49 -20 51 0 12 29 1 45 -16 25 -27 45 -25 45 4 0 41 -18 76 -66 129 -43 48 -81 107 -69 107 10 0 115 -69 167 -110 37 -30 59 -40 85 -40 35 0 36 0 30 36 -4 20 -16 47 -28 60 l-22 24 26 0 c28 0 45 15 25 23 -10 4 -10 8 1 15 22 16 5 41 -41 61 -47 21 -41 28 26 33 22 2 41 8 43 15 7 19 -38 52 -94 70 -52 16 -63 26 -43 38 5 3 15 16 21 27 11 20 9 21 -31 15 l-42 -5 28 29 c24 25 26 31 14 39 -13 8 -30 7 -66 -7 -7 -2 -9 7 -6 25 2 18 -2 33 -13 42 -20 17 -31 6 -70 -71 -27 -52 -98 -119 -127 -119 -26 0 -23 39 9 107 34 72 115 154 171 173 48 15 43 36 -6 25 -47 -10 -108 -59 -148 -120 -36 -53 -52 -70 -41 -41 10 25 -11 250 -28 296 -19 55 -61 100 -92 100 -13 0 -23 -4 -23 -10 0 -5 7 -10 14 -10 23 0 62 -59 80 -120 20 -68 35 -380 18 -380 -16 0 -19 25 -14 140 2 58 0 116 -6 130 l-9 25 -16 -32 c-29 -54 -39 -51 -35 12 4 70 -13 82 -39 30 l-19 -36 -17 37 c-16 33 -20 36 -50 30 -20 -3 -39 0 -51 9 -11 8 -33 15 -49 15 -25 0 -28 -3 -22 -22 13 -44 45 -110 80 -168 56 -92 46 -118 -20 -50 -42 43 -55 49 -55 25 0 -25 -23 -17 -80 25 -63 47 -105 53 -114 16 -4 -18 -15 -25 -48 -31 -38 -6 -41 -8 -25 -18 54 -34 54 -36 1 -37 -78 0 -136 -25 -104 -45 17 -11 11 -23 -14 -29 -27 -7 -86 -53 -86 -67 0 -5 19 -9 42 -9 l42 0 -23 -21 c-36 -34 -14 -44 64 -31 94 15 122 2 65 -31 -16 -10 -30 -25 -30 -34 0 -17 40 -13 122 13 68 22 102 16 106 -18 2 -18 -1 -28 -10 -29 -111 -6 -191 -18 -214 -34 l-28 -18 29 -23 c16 -13 27 -25 25 -27 -3 -2 -22 -14 -42 -26 -35 -21 -53 -61 -28 -61 21 0 8 -27 -36 -78 -39 -45 -43 -52 -25 -52 12 0 21 -4 21 -10 0 -5 -4 -10 -9 -10 -16 0 -71 -58 -71 -74 0 -23 34 -20 91 9 l49 24 0 -24 c0 -13 4 -26 9 -29 12 -8 58 30 66 54 8 27 22 25 21 -1 -2 -41 25 -31 84 30 58 61 73 70 85 51 13 -21 37 -7 106 62 40 40 74 67 76 61 2 -6 -15 -48 -39 -93 -88 -167 -97 -185 -97 -202 -1 -26 9 -22 51 19 21 20 40 35 42 32 3 -2 -15 -54 -39 -114 -24 -61 -44 -118 -45 -127 0 -22 37 -24 67 -3 19 13 22 13 27 0 12 -32 38 -14 63 45 27 62 43 76 43 38 0 -13 4 -29 9 -37 11 -17 30 17 57 102 10 31 21 57 24 57 4 0 7 -30 6 -67 -1 -38 2 -77 6 -88 8 -22 -26 -47 -229 -171 l-103 -62 -52 13 c-29 7 -78 18 -109 25 -55 11 -57 12 -62 49 -7 54 -53 118 -106 149 -40 23 -57 27 -128 27 -91 0 -129 -18 -145 -67 -31 -93 106 -238 225 -238 41 0 101 22 128 46 16 14 25 14 91 -2 107 -25 109 -28 52 -57 -189 -95 -478 -206 -720 -276 -155 -45 -340 -91 -364 -91 -10 0 -22 22 -34 60 -22 71 -82 145 -141 171 -25 12 -64 19 -102 19 -69 0 -65 -4 -77 84 -3 22 -17 63 -32 93 -22 46 -24 58 -15 85 6 17 11 50 11 73 0 22 6 50 14 60 13 18 14 17 32 -11 27 -42 36 -46 60 -23 33 31 45 86 38 173 -4 42 -4 76 0 76 4 0 14 -17 22 -37 18 -41 20 -149 4 -203 -13 -45 -13 -106 0 -131 16 -29 57 -24 90 11 l29 31 17 -26 c21 -33 43 -94 44 -123 0 -12 11 -45 25 -72 21 -41 30 -50 52 -50 15 0 37 9 49 21 l21 20 26 -43 c60 -102 139 -150 153 -93 3 13 1 38 -4 55 -11 29 -10 30 13 24 14 -3 25 -3 25 0 0 10 -34 77 -54 109 -20 30 -14 33 24 12 14 -8 38 -14 53 -15 25 0 27 3 22 23 -11 36 -51 100 -79 126 -34 32 -37 61 -3 37 48 -34 77 -46 101 -40 39 10 40 34 3 73 -37 39 -77 102 -77 120 0 9 20 10 74 5 48 -4 76 -3 80 4 3 6 -20 32 -51 59 -159 133 -262 250 -251 284 2 6 24 -6 48 -25 25 -20 68 -43 95 -51 28 -9 80 -25 117 -37 37 -12 70 -19 74 -15 11 11 -17 95 -40 119 -12 13 -39 37 -61 55 -43 34 -43 37 -4 46 23 6 30 1 53 -32 29 -42 89 -75 127 -69 19 2 24 8 22 31 -2 27 10 36 23 16 11 -18 87 -49 122 -49 39 0 43 20 8 55 -23 23 -23 24 -5 41 39 35 10 82 -59 94 l-37 6 34 18 35 19 -23 18 c-25 20 -82 39 -119 39 -35 0 -17 17 25 24 76 12 80 41 9 76 -53 25 -106 25 -190 0 -55 -17 -73 -19 -106 -10 -50 14 -51 27 -2 35 48 8 259 73 295 91 29 16 36 34 12 34 -9 0 -19 8 -22 18 -9 24 -23 32 -56 32 -21 0 -30 6 -34 21 -4 14 -11 18 -22 13 -9 -3 -27 -9 -40 -12 -21 -4 -22 -3 -12 17 7 11 29 30 51 41 63 32 69 57 9 40 -30 -9 -36 -7 -50 12 -14 18 -25 21 -79 19 -36 -1 -68 3 -76 10 -11 9 -15 7 -20 -7 -20 -66 -45 -69 -63 -8 -22 74 -46 70 -106 -19 -32 -48 -33 -48 -39 -22 -11 43 -31 15 -66 -91 -22 -65 -39 -100 -57 -114 -14 -11 -30 -20 -34 -20 -14 0 -10 101 6 165 45 173 203 390 310 425 44 15 45 30 2 30 -71 0 -189 -108 -273 -250 -63 -107 -87 -186 -86 -292 0 -49 -4 -88 -8 -88 -24 0 -70 56 -86 103 -26 82 -71 163 -109 201 -42 42 -89 68 -115 64 -17 -3 -16 -7 8 -65 14 -35 23 -66 19 -69 -3 -3 -21 5 -39 19 -18 14 -50 28 -70 32 -37 7 -38 6 -38 -23 0 -16 7 -46 15 -66 18 -42 14 -43 -59 -21 -68 21 -79 20 -66 -4 16 -31 12 -39 -27 -51 -57 -18 -62 -28 -31 -55 l28 -24 -28 -13 c-15 -7 -27 -20 -27 -28 0 -12 16 -15 93 -13 50 1 92 -2 92 -6 0 -4 -35 -18 -77 -30 -95 -28 -140 -50 -177 -89 -21 -23 -27 -37 -22 -55 6 -26 43 -47 82 -47 44 0 21 -23 -35 -36 -59 -13 -121 -64 -121 -99 0 -11 -7 -31 -16 -43 -24 -34 -2 -56 49 -49 36 5 38 4 23 -12 -22 -24 -11 -31 46 -31 38 0 70 11 150 51 55 28 118 62 139 76 39 26 69 25 69 0 0 -30 -157 -141 -232 -165 -55 -18 -76 -42 -37 -42 20 0 17 -4 -19 -31 -49 -36 -61 -69 -38 -104 9 -14 21 -25 26 -25 5 0 5 -12 -1 -29 -6 -16 -9 -42 -7 -58 3 -30 23 -35 81 -18 l28 7 -7 -41 c-6 -37 -4 -43 14 -48 18 -4 20 -12 17 -58 -3 -59 22 -115 51 -115 17 0 92 70 112 105 l12 20 16 -20 c29 -36 51 -99 57 -161 8 -79 -2 -93 -73 -100 -46 -5 -63 -2 -103 20 -26 14 -55 26 -63 26 -30 0 -8 -35 40 -65 43 -26 59 -30 118 -29 37 0 68 -3 68 -6 0 -15 -60 -88 -106 -129 -27 -24 -96 -67 -154 -95 l-105 -51 -205 -3 c-134 -2 -255 2 -349 12 -79 8 -145 17 -146 18 -2 2 0 23 5 48 9 46 4 91 -12 123 -7 14 -4 17 22 17 43 0 47 21 16 90 -27 63 -22 71 24 45 14 -8 40 -14 59 -15 29 0 33 3 28 23 -2 12 -8 29 -11 39 -6 12 0 20 21 30 58 28 38 88 -48 143 -53 34 -88 70 -77 81 2 2 20 -8 39 -21 19 -14 55 -28 79 -31 43 -6 47 -4 58 20 7 15 12 36 12 46 0 26 -54 85 -152 167 -44 36 -88 82 -98 104 -25 47 -25 49 -1 49 11 0 55 -33 98 -73 85 -79 169 -137 205 -141 13 -2 37 -10 55 -19 51 -27 70 -23 65 13 -4 27 -2 30 23 30 24 0 26 2 20 30 -4 17 -2 30 3 30 5 0 36 -18 70 -40 117 -75 155 -87 167 -51 12 37 -64 201 -105 226 -18 11 -10 22 20 29 38 7 38 26 1 64 -32 31 -67 42 -137 42 -36 0 -51 6 -84 36 -22 20 -40 40 -40 45 0 5 31 9 69 9 54 0 75 5 102 23 19 12 35 32 37 44 3 19 -5 24 -49 37 -62 19 -125 20 -218 5 -55 -9 -74 -9 -96 2 -15 8 -27 19 -25 24 3 11 209 70 280 80 66 10 120 25 120 34 0 4 -19 18 -42 31 -37 21 -40 25 -24 34 10 6 29 19 43 30 23 17 23 19 7 37 -9 10 -37 21 -63 25 -25 3 -56 16 -69 27 -15 14 -37 21 -62 22 -23 0 -38 4 -36 10 3 6 10 27 17 47 17 51 -6 78 -65 78 -45 0 -129 -20 -165 -39 -31 -17 -34 -10 -15 38 44 110 -50 89 -126 -29 -18 -28 -35 -50 -39 -50 -4 0 -13 12 -20 27 -16 36 -26 21 -44 -68 -23 -115 -58 -182 -107 -204 -29 -13 -44 -15 -51 -8 -8 8 -10 63 -7 165 4 134 8 163 32 233 32 94 98 215 167 308 52 69 140 142 221 183 46 24 62 44 34 44 -7 0 -46 -16 -86 -37z m3115 -1517 c-24 -18 -24 -18 -18 17 5 26 7 27 21 13 15 -14 14 -17 -3 -30z m-865 -106 c45 -12 94 -63 110 -113 10 -32 9 -42 -4 -62 -32 -49 -144 -56 -213 -14 -75 47 -109 149 -61 183 26 18 114 21 168 6z m740 -190 c0 -22 -41 -50 -72 -50 l-33 0 45 30 c48 32 60 36 60 20z m-1753 -261 c56 -27 100 -81 119 -147 9 -30 14 -55 12 -58 -6 -5 -355 -61 -433 -69 -33 -3 -70 -8 -82 -11 -37 -7 -26 9 22 35 88 47 163 128 195 211 7 19 20 41 28 48 24 19 91 14 139 -9z m-467 -471 c-38 -54 -69 -142 -77 -218 -4 -40 -10 -60 -19 -60 -26 0 -37 41 -31 124 3 45 0 103 -5 130 -13 61 -7 66 89 66 l73 0 -30 -42z"
       id="path38" />
    <path
       d="M8940 8925 c0 -17 -16 -20 -25 -5 -24 38 -68 -39 -55 -97 8 -35 0 -42 -20 -18 -19 22 -30 18 -30 -11 0 -35 15 -62 63 -111 61 -64 22 -54 -52 13 -41 37 -66 53 -72 47 -6 -6 -5 -14 6 -23 17 -14 20 -40 5 -40 -15 0 -12 -27 4 -33 7 -3 16 -20 20 -38 3 -18 14 -42 24 -52 16 -20 16 -20 -8 -13 -14 4 -41 9 -60 13 l-35 6 23 -25 23 -26 -47 6 c-41 4 -46 3 -41 -11 3 -9 2 -19 -3 -22 -18 -11 -11 -24 16 -31 l25 -6 -21 -22 c-26 -28 -18 -36 37 -36 l44 0 -20 -26 c-12 -15 -21 -31 -21 -37 0 -12 112 -2 140 13 30 16 24 4 -15 -36 -19 -19 -35 -41 -35 -49 0 -24 2 -24 120 55 44 29 50 31 50 21 0 -5 -18 -29 -40 -52 -28 -30 -40 -52 -40 -73 0 -28 1 -28 19 -12 18 16 19 15 25 -28 8 -49 26 -72 26 -34 1 21 2 20 14 -7 12 -30 13 -30 24 -8 7 12 12 30 13 40 0 13 3 12 10 -7 15 -37 28 -8 30 65 1 33 5 74 9 90 l7 30 10 -26 c6 -14 16 -44 22 -67 6 -23 16 -60 21 -82 11 -41 26 -52 36 -26 3 8 12 12 20 9 10 -3 14 2 14 18 l0 23 16 -22 c20 -29 36 -28 28 3 -7 29 -3 30 36 10 28 -14 30 -14 30 3 0 21 -21 55 -63 100 -42 44 -13 43 40 -3 31 -26 50 -35 78 -35 30 0 35 3 31 18 -5 15 -1 17 29 14 43 -5 71 13 54 35 -9 11 -8 16 5 26 15 11 15 14 1 34 -9 13 -28 23 -47 25 l-31 3 32 34 c44 47 35 62 -36 61 -66 -1 -133 9 -133 20 0 4 28 10 63 14 71 8 127 24 127 36 0 5 -25 12 -55 15 -67 9 -63 25 6 25 61 0 77 23 37 53 l-26 20 29 24 c29 25 37 48 19 55 -6 2 -6 18 0 43 11 49 -2 70 -34 53 -11 -6 -24 -16 -28 -22 -5 -7 -8 -4 -8 7 0 29 -28 19 -52 -18 -27 -41 -33 -43 -43 -12 -6 20 -7 19 -15 -11 -13 -53 -20 -49 -20 10 0 65 -17 89 -44 62 -27 -26 -53 -86 -60 -136 -12 -80 -36 -69 -36 17 0 29 -5 45 -15 49 -8 3 -15 15 -15 26 0 28 -17 25 -34 -7 l-15 -28 -1 33 c0 19 -6 35 -15 38 -8 3 -19 21 -25 40 -13 37 -26 44 -33 17 -4 -14 -5 -12 -6 5 -1 24 -31 31 -31 7z"
       id="path40" />
    <path
       d="M633 8365 c-61 -37 -86 -95 -81 -190 3 -66 7 -78 33 -106 130 -138 379 -51 351 123 -8 51 -28 88 -67 127 -73 73 -161 90 -236 46z m157 -29 c88 -44 135 -158 96 -231 -26 -48 -70 -69 -143 -70 -69 0 -101 17 -141 76 -47 68 -9 193 69 232 45 22 65 21 119 -7z"
       id="path42" />
    <path
       d="M8365 8241 c-7 -12 -4 -14 80 -40 106 -34 182 -79 255 -151 185 -183 228 -392 126 -622 -14 -31 -28 -72 -31 -92 -4 -20 -13 -36 -20 -36 -33 0 -64 129 -65 262 0 72 -23 148 -45 148 -13 0 -18 -22 -27 -110 -3 -24 -4 -23 -25 13 -29 49 -49 48 -57 -4 -4 -22 -4 -44 -1 -50 9 -13 6 -12 -75 21 -71 29 -110 37 -110 23 1 -5 5 -28 9 -51 8 -42 8 -43 -13 -38 -40 12 -115 19 -131 12 -14 -5 -15 -9 -4 -22 10 -13 9 -16 -10 -21 -32 -8 -22 -36 17 -47 17 -5 32 -12 32 -16 0 -4 -18 -14 -41 -23 -53 -21 -43 -41 15 -33 49 8 86 -1 64 -15 -7 -5 -25 -9 -40 -9 -30 0 -69 -35 -62 -55 3 -7 19 -19 35 -25 41 -17 36 -28 -13 -32 -43 -3 -43 -3 -40 -39 2 -35 0 -38 -40 -54 -43 -17 -88 -51 -88 -67 0 -4 9 -8 20 -8 25 0 25 -1 1 -42 -21 -35 -56 -147 -48 -154 2 -2 49 19 103 47 79 41 114 53 169 59 39 4 74 4 78 0 15 -13 -94 -86 -173 -115 -112 -43 -165 -106 -101 -120 l30 -6 -19 -32 c-25 -43 -34 -100 -21 -126 15 -27 28 -26 74 4 20 14 37 23 37 21 0 -3 -12 -31 -27 -61 -26 -52 -27 -58 -13 -83 12 -22 14 -42 7 -100 -5 -40 -6 -76 -3 -80 4 -3 19 10 35 29 l29 34 11 -27 c22 -57 49 -26 67 75 3 20 11 37 16 37 6 0 8 -13 4 -31 -18 -89 37 -106 88 -27 18 28 43 131 66 268 7 41 21 93 33 115 23 47 119 186 124 181 6 -6 -29 -99 -63 -168 -19 -37 -35 -82 -36 -100 -3 -29 0 -33 19 -30 21 3 21 2 7 -44 -27 -89 -18 -106 42 -84 15 6 28 9 30 7 2 -2 -5 -28 -16 -59 -26 -75 -35 -176 -18 -208 32 -61 81 -25 118 86 12 35 23 64 24 64 2 0 3 -35 3 -78 0 -43 3 -88 7 -99 6 -20 4 -21 -21 -14 -35 10 -50 5 -64 -21 -9 -17 -8 -19 13 -18 46 4 48 2 46 -47 -1 -27 2 -57 6 -68 7 -15 2 -13 -22 9 -36 33 -68 30 -57 -5 6 -19 4 -21 -11 -15 -11 5 -36 10 -56 13 -31 5 -39 2 -44 -13 -4 -11 -21 -31 -38 -46 -29 -25 -30 -27 -11 -34 11 -4 23 -13 27 -20 5 -6 40 -15 78 -19 87 -9 89 -27 3 -37 -61 -7 -163 -50 -163 -68 0 -13 11 -13 65 1 28 7 49 8 61 1 13 -7 6 -12 -36 -22 -53 -13 -125 -64 -114 -81 3 -5 16 -9 29 -9 l24 0 -24 -36 c-14 -20 -25 -51 -25 -69 0 -19 -8 -39 -20 -50 -33 -30 -100 -139 -120 -198 -47 -134 -49 -251 -4 -403 13 -46 24 -89 24 -94 0 -21 -24 -9 -61 30 -30 32 -45 61 -69 140 -17 54 -35 102 -40 105 -5 3 -17 -6 -26 -20 -15 -23 -19 -24 -26 -11 -11 19 -35 21 -41 4 -2 -7 -2 -28 1 -47 6 -38 6 -38 -62 11 -64 46 -76 40 -76 -40 l0 -69 -80 5 c-91 5 -96 0 -55 -54 l25 -33 -40 -12 c-54 -16 -71 -36 -45 -55 10 -8 25 -14 32 -14 20 0 16 -10 -13 -32 -15 -12 -22 -24 -17 -29 7 -7 111 5 198 24 6 1 11 -2 11 -8 1 -5 -43 -23 -97 -40 -54 -16 -103 -35 -110 -41 -17 -18 -1 -53 28 -60 23 -6 22 -8 -28 -36 -59 -32 -69 -42 -69 -75 0 -27 10 -28 50 -8 33 17 36 12 15 -25 -8 -14 -14 -44 -15 -67 0 -52 19 -57 63 -15 l28 27 -31 -88 c-18 -48 -30 -90 -27 -93 3 -3 17 13 31 35 14 23 37 58 50 79 20 32 32 40 77 50 34 8 56 9 62 3 17 -17 -12 -68 -74 -130 -41 -40 -57 -64 -53 -75 7 -19 25 -21 42 -4 24 24 12 -10 -23 -69 -40 -66 -44 -104 -14 -134 19 -19 22 -19 44 -5 23 15 24 15 18 -18 -11 -69 47 -107 70 -46 8 21 16 28 28 25 13 -4 20 9 34 62 10 38 21 72 26 77 5 5 14 -12 21 -37 7 -26 15 -47 19 -47 4 0 17 26 30 58 12 31 31 68 42 82 10 13 33 56 51 95 18 38 42 81 54 95 21 25 21 25 22 3 0 -13 -11 -56 -25 -97 -28 -83 -32 -138 -12 -158 8 -7 16 -37 20 -67 12 -105 54 -109 107 -11 l34 65 13 -94 c13 -92 34 -148 54 -136 5 4 12 -1 15 -9 8 -21 43 -21 51 0 4 10 12 -3 23 -36 10 -29 27 -62 39 -73 19 -20 22 -20 37 -5 13 13 20 14 35 5 41 -26 75 36 63 116 -6 41 -4 43 26 24 17 -10 22 -9 30 3 15 24 11 71 -10 119 -11 24 -20 44 -20 46 0 2 16 -1 35 -5 46 -10 56 3 44 62 -15 86 -43 121 -131 172 -27 15 -48 29 -48 33 0 12 77 -10 132 -38 64 -32 78 -35 78 -15 0 19 -106 116 -127 116 -10 0 -49 30 -86 68 -96 97 -91 103 42 43 130 -58 131 -58 131 -22 0 38 15 39 64 6 20 -14 52 -36 72 -50 20 -14 49 -25 64 -25 24 0 27 3 22 25 -5 29 -3 30 45 10 46 -20 99 -19 107 0 8 23 -8 55 -54 108 -32 36 -40 51 -31 60 18 18 13 45 -12 61 -12 9 -55 18 -95 22 -40 4 -72 10 -72 14 0 4 31 10 70 12 74 4 106 21 95 50 -4 9 -18 21 -33 27 -37 15 -238 34 -287 27 -48 -7 -107 5 -113 22 -2 7 17 21 44 33 37 15 45 22 34 29 -11 7 0 10 34 10 31 0 56 6 67 16 9 8 41 22 69 29 70 19 79 28 58 65 l-16 29 34 11 c19 6 34 18 34 25 0 23 -72 39 -119 28 -22 -6 -42 -8 -45 -6 -3 3 5 18 17 35 18 25 19 30 7 38 -8 5 -24 10 -36 10 -12 0 -35 5 -52 11 -25 9 -38 6 -81 -15 -28 -14 -52 -26 -53 -26 -2 0 -1 22 0 50 4 54 -6 62 -43 34 -19 -14 -20 -13 -25 13 -3 15 -9 28 -15 28 -8 0 -41 -43 -65 -85 -6 -11 -11 -12 -23 -2 -12 11 -17 8 -25 -18 -11 -30 -32 -42 -32 -17 0 6 -5 19 -10 27 -19 29 -30 -11 -30 -108 0 -95 -14 -146 -46 -173 -20 -17 -24 -10 -46 78 -38 158 -24 333 37 453 32 64 102 150 122 150 8 0 31 9 49 21 19 11 34 16 34 10 0 -6 4 -11 9 -11 16 0 130 81 155 111 14 16 27 29 31 29 12 0 -38 -84 -74 -123 -42 -47 -66 -86 -57 -95 4 -3 27 9 52 27 63 44 80 28 36 -33 -37 -51 -41 -71 -12 -63 25 6 25 8 -5 -44 -31 -56 -33 -74 -4 -59 19 11 20 9 14 -22 -12 -63 24 -111 55 -73 6 8 21 13 33 12 23 -2 64 49 73 92 3 14 9 35 13 46 7 18 10 17 25 -13 20 -39 47 -40 57 -2 3 14 4 55 1 91 -4 62 -3 68 18 79 19 10 22 18 17 53 -3 23 -9 52 -13 65 -3 12 -2 22 4 22 19 0 37 -66 37 -140 0 -55 5 -86 20 -115 24 -48 47 -52 56 -10 6 28 7 28 8 5 2 -38 28 -70 58 -70 22 0 24 3 19 25 -7 27 8 35 18 10 3 -8 12 -15 21 -15 11 0 15 12 15 51 0 28 -5 60 -11 71 -10 18 -9 20 5 15 19 -7 22 14 6 43 -10 18 -8 19 20 14 39 -8 39 5 0 75 -17 30 -28 56 -26 58 2 3 31 -9 64 -26 34 -17 63 -27 67 -22 7 12 -4 41 -24 65 -15 18 -14 19 22 13 36 -6 38 -4 31 16 -12 43 -34 66 -81 88 l-48 22 33 7 c18 4 36 10 39 14 3 3 -10 21 -29 40 -25 25 -47 36 -82 41 -65 10 -55 31 14 27 47 -3 52 -1 40 13 -7 8 -26 15 -42 15 -17 0 -27 4 -23 10 3 6 19 10 35 10 40 0 47 17 10 25 -16 4 -28 11 -27 18 2 11 -71 29 -85 21 -4 -3 -10 7 -14 21 -7 30 -20 32 -29 5 -9 -30 -25 -24 -25 9 0 16 -6 34 -14 40 -19 16 -28 -1 -51 -96 -22 -91 -34 -110 -63 -94 -30 16 -28 54 4 109 18 31 29 41 34 32 6 -9 15 1 29 31 21 43 22 45 5 137 -9 51 -14 95 -11 98 3 4 21 -11 39 -32 18 -22 46 -53 63 -70 16 -17 29 -38 27 -47 -4 -21 39 -51 50 -34 12 18 10 25 -12 47 -20 20 -20 20 -1 20 11 0 23 -5 26 -10 4 -6 11 -8 16 -4 15 9 2 56 -58 208 -30 76 -53 146 -50 156 3 11 -12 41 -39 77 -24 32 -44 62 -44 68 0 5 29 -20 65 -55 41 -41 65 -73 65 -87 0 -34 40 -73 82 -80 33 -5 37 -3 40 18 3 21 9 15 48 -41 77 -114 160 -190 160 -149 0 6 18 -5 40 -25 27 -24 50 -36 68 -35 15 0 46 -3 70 -7 37 -6 42 -4 42 12 0 19 -15 46 -58 103 l-23 31 23 0 c38 0 52 14 39 38 -6 12 -21 28 -33 36 l-22 16 26 0 c14 0 36 8 48 18 23 18 23 19 5 49 -21 36 -49 55 -95 63 l-35 7 43 17 c23 10 42 21 42 25 0 7 -72 46 -105 56 -16 5 -8 10 34 25 55 18 73 34 64 56 -7 19 -27 24 -142 35 -101 10 -189 38 -148 47 29 6 19 20 -30 46 -27 13 -56 33 -67 45 -37 40 9 34 105 -15 86 -44 101 -48 169 -49 41 -1 109 -5 151 -10 86 -9 119 2 119 38 0 27 -40 67 -90 92 -47 23 -46 23 -24 39 18 14 17 15 -19 30 -20 9 -64 20 -97 24 -68 10 -78 16 -61 35 8 11 8 17 -1 24 -18 13 -66 30 -108 38 -69 13 -110 26 -110 35 0 5 17 12 38 15 20 3 60 12 87 20 38 11 65 12 115 5 82 -12 101 -12 120 0 22 14 -25 59 -77 73 -46 12 -48 14 -33 37 12 20 -16 50 -47 50 -20 0 -23 5 -23 41 0 60 -14 79 -58 79 -38 0 -122 -34 -171 -70 l-28 -19 4 47 c6 62 -9 102 -40 102 -34 0 -62 -31 -104 -113 -40 -79 -53 -77 -29 4 9 29 16 66 16 82 0 55 -31 24 -89 -88 -61 -118 -149 -260 -157 -252 -3 2 13 49 34 103 54 135 66 193 59 278 -15 179 -137 373 -298 472 -105 64 -246 104 -264 75z m545 -2233 c0 -25 -3 -29 -10 -18 -13 20 -13 50 0 50 6 0 10 -15 10 -32z m307 -257 c12 -9 23 -20 23 -24 0 -12 -58 25 -83 52 l-22 25 30 -19 c17 -10 40 -25 52 -34z"
       id="path44" />
    <path
       d="M4243 6643 c-20 -8 -15 -21 9 -25 29 -4 32 -20 23 -143 -6 -98 -7 -101 -36 -117 -32 -19 -42 -55 -11 -43 45 19 49 17 72 -29 12 -25 34 -54 48 -65 61 -42 135 -49 163 -15 21 25 -3 38 -44 23 -49 -17 -91 1 -122 56 -31 52 -31 71 -2 79 38 10 58 7 103 -16 46 -23 66 -19 44 7 -28 34 -72 48 -132 42 l-58 -5 7 41 c4 23 8 75 8 115 0 62 -3 76 -19 88 -20 14 -32 16 -53 7z"
       id="path46" />
    <path
       d="M1600 6056 c0 -23 24 -81 70 -173 54 -105 77 -164 97 -246 14 -59 23 -110 19 -114 -10 -10 -73 55 -129 135 -56 79 -80 89 -85 34 -2 -17 -5 -32 -7 -32 -1 0 -27 11 -57 25 -29 14 -59 25 -65 25 -20 0 -15 -36 12 -90 14 -27 25 -51 25 -52 0 -2 -31 -2 -70 0 -68 4 -82 -2 -58 -26 9 -9 8 -16 -5 -30 -24 -26 -21 -33 8 -22 14 5 25 7 25 4 0 -4 -11 -15 -25 -26 -14 -11 -25 -24 -25 -29 0 -12 41 -11 94 2 24 6 54 9 67 7 18 -2 9 -9 -40 -26 -81 -30 -154 -99 -149 -140 2 -22 9 -28 36 -30 41 -4 41 -15 -1 -40 -38 -22 -72 -84 -63 -115 3 -12 0 -36 -6 -53 -6 -17 -8 -39 -5 -48 10 -24 37 -7 127 79 96 91 138 125 156 125 36 0 -7 -93 -64 -139 -56 -44 -74 -86 -70 -168 3 -67 3 -68 31 -66 25 2 27 -1 27 -35 0 -77 16 -98 51 -66 16 14 19 14 32 -8 8 -12 17 -42 21 -65 13 -89 55 -129 58 -55 0 20 2 43 2 51 1 8 8 17 16 19 23 8 30 23 30 71 l0 45 20 -22 c39 -41 43 -29 36 89 l-7 111 43 56 43 55 7 -87 c6 -85 40 -263 59 -313 8 -21 13 -23 46 -17 47 8 58 22 73 87 6 29 14 59 16 67 9 27 21 -9 29 -85 10 -93 40 -175 65 -175 11 0 27 11 36 25 17 26 17 26 38 7 29 -27 61 -35 86 -22 24 13 27 57 5 86 -20 26 -19 31 8 30 18 -1 23 5 25 31 3 27 -3 39 -35 68 l-38 36 30 -8 c17 -4 44 -7 60 -8 25 0 31 4 33 26 2 20 -9 40 -48 83 l-52 56 41 0 c36 0 41 3 41 23 0 27 -28 55 -120 122 -67 48 -80 61 -80 82 0 8 15 7 53 -6 62 -21 196 -45 204 -37 9 9 -12 29 -82 77 -36 24 -65 47 -65 51 0 14 85 8 107 -7 11 -8 35 -37 52 -64 21 -32 43 -53 63 -60 17 -6 33 -9 36 -6 3 2 -5 30 -17 61 -11 31 -21 58 -21 60 0 2 20 4 45 4 44 0 95 16 95 31 0 4 -12 17 -27 28 -22 16 -24 20 -10 21 29 0 20 38 -13 55 -16 8 -36 15 -44 15 -9 0 -16 11 -18 28 -3 27 -3 27 -80 27 -42 0 -79 3 -83 6 -3 4 24 28 60 54 36 26 64 52 62 58 -9 29 -65 30 -172 3 -58 -15 -115 -26 -127 -24 -43 6 -26 26 54 62 46 20 105 53 132 73 43 31 47 37 33 48 -11 7 -14 19 -10 35 6 23 5 23 -55 16 l-62 -7 0 31 c0 40 -21 47 -65 21 l-35 -20 -6 25 c-9 34 -44 29 -62 -9 l-14 -29 -34 33 c-39 38 -55 35 -89 -19 -15 -23 -27 -31 -45 -29 l-25 2 0 -123 c0 -124 -5 -141 -41 -142 -13 0 -38 87 -49 165 -4 32 -31 96 -75 181 -38 73 -74 150 -81 173 -15 50 -29 53 -29 7z"
       id="path48" />
    <path
       d="M5840 5663 c0 -5 32 -33 71 -63 124 -97 192 -204 192 -304 0 -124 -124 -242 -268 -254 -74 -5 -163 12 -207 41 -39 26 -81 102 -72 132 11 38 50 67 97 72 65 8 111 -12 181 -78 35 -32 69 -59 75 -59 27 0 6 39 -53 96 -49 48 -76 66 -117 78 -124 37 -233 -24 -231 -129 3 -109 98 -184 258 -201 158 -17 338 93 375 229 17 62 6 153 -24 214 -32 63 -126 167 -186 205 -42 26 -91 37 -91 21z"
       id="path50" />
    <path
       d="M2582 5080 c-86 -13 -136 -84 -113 -160 36 -122 182 -177 276 -105 46 34 57 58 57 116 0 108 -89 169 -220 149z m153 -60 c48 -45 45 -123 -6 -171 -63 -59 -152 -44 -202 33 -65 100 -13 172 120 165 49 -2 68 -8 88 -27z"
       id="path52" />
    <path
       d="M6013 4983 c-5 -10 -8 -67 -8 -128 0 -148 20 -216 101 -346 66 -108 75 -129 49 -129 -20 0 -54 36 -115 122 -46 67 -47 67 -65 48 -17 -18 -19 -19 -30 -3 -11 15 -13 15 -20 -6 -4 -13 -9 -31 -10 -40 -2 -9 -4 -17 -4 -17 -1 -1 -19 16 -41 38 -30 30 -45 39 -67 36 -27 -3 -28 -4 -25 -56 l4 -53 -59 6 c-64 7 -134 -4 -140 -22 -3 -7 10 -21 27 -31 l31 -19 -46 -12 c-26 -7 -45 -17 -45 -25 0 -8 20 -26 45 -40 25 -15 45 -33 45 -40 0 -22 26 -26 128 -20 80 6 100 4 110 -8 20 -25 -7 -38 -93 -43 -85 -5 -170 -38 -170 -65 0 -12 12 -14 60 -12 l60 2 -62 -24 c-95 -36 -115 -60 -72 -89 l20 -15 -23 -18 c-29 -23 -58 -64 -58 -81 0 -20 28 -16 63 9 18 12 26 15 20 8 -7 -8 -13 -23 -13 -33 0 -16 5 -18 28 -13 15 4 40 16 55 27 16 12 31 19 33 16 3 -3 -7 -43 -21 -90 -44 -140 -23 -182 55 -108 33 31 43 36 47 24 4 -9 0 -30 -7 -47 -7 -17 -20 -57 -28 -88 -15 -54 -15 -59 0 -75 16 -16 19 -16 36 0 26 24 32 21 32 -15 0 -42 18 -108 30 -108 18 0 50 54 50 86 0 36 8 42 28 22 17 -17 39 7 47 53 4 21 11 36 16 33 18 -11 39 19 39 56 0 25 17 70 53 140 78 153 95 145 57 -26 -30 -135 -25 -244 12 -244 6 0 31 21 55 46 l43 47 0 -81 c0 -75 1 -81 22 -84 17 -2 24 -14 34 -56 25 -115 62 -134 79 -43 10 53 35 83 35 42 0 -24 70 -101 93 -101 9 0 21 8 26 18 9 16 11 15 26 -5 19 -27 50 -30 59 -7 11 28 6 88 -8 117 -16 30 -14 32 15 17 16 -9 19 -7 19 14 0 14 -4 36 -9 49 -8 21 -6 26 10 30 34 9 25 65 -21 122 -22 28 -40 53 -40 56 0 3 23 4 50 1 48 -4 50 -3 50 20 0 14 -15 45 -34 69 -18 24 -36 54 -40 66 -4 13 -27 36 -51 53 -46 31 -129 120 -120 128 6 6 165 -98 227 -150 72 -59 93 -30 38 52 -36 54 -37 66 -7 74 17 5 28 -1 52 -31 81 -100 81 -100 104 -79 11 10 23 31 26 47 4 16 8 29 9 29 1 0 19 -9 41 -20 49 -25 65 -25 65 -2 0 33 -32 112 -49 122 -46 26 -46 28 -27 49 17 19 18 22 2 46 -22 34 -71 58 -131 65 -37 4 -51 10 -53 23 -3 15 5 17 55 17 96 0 112 30 27 51 -24 6 -44 15 -44 19 0 5 21 20 46 35 60 35 53 50 -24 49 l-61 -1 15 29 15 28 -43 0 c-39 0 -168 -28 -210 -45 -13 -5 -18 -2 -18 9 0 9 4 16 9 16 15 0 162 121 169 138 8 22 -26 42 -75 42 l-43 0 6 40 c4 22 3 40 -1 40 -17 0 -76 -43 -100 -73 l-25 -32 0 33 c0 50 -47 92 -92 83 -27 -6 -35 -14 -49 -51 -15 -39 -17 -42 -28 -24 -11 19 -11 19 -27 -1 -13 -17 -15 -37 -10 -116 6 -93 6 -98 -17 -125 -34 -39 -43 -29 -111 120 -66 145 -89 243 -84 365 2 61 0 85 -9 88 -7 3 -16 -4 -20 -14z m-218 -823 c-3 -5 -13 -10 -21 -10 -8 0 -12 5 -9 10 3 6 13 10 21 10 8 0 12 -4 9 -10z"
       id="path54" />
    <path
       d="M3410 4753 c0 -5 24 -21 53 -36 144 -77 217 -206 218 -388 1 -90 -7 -139 -47 -298 -13 -51 -24 -109 -24 -127 0 -39 -8 -42 -42 -14 -36 28 -55 82 -63 182 -8 99 -22 123 -55 93 -11 -10 -20 -24 -20 -32 0 -22 -15 -15 -33 17 -23 38 -65 60 -116 60 -45 0 -69 -19 -78 -62 l-6 -29 -19 21 c-19 20 -69 27 -102 14 -20 -8 -20 -37 0 -75 19 -38 14 -44 -27 -30 -18 6 -43 11 -56 11 -22 0 -24 -3 -18 -28 6 -28 4 -29 -55 -47 -53 -16 -91 -39 -79 -49 33 -26 135 -70 174 -75 45 -5 50 -9 50 -31 0 -29 -24 -38 -106 -39 -30 -1 -64 -7 -74 -15 -18 -13 -18 -14 3 -32 34 -29 28 -52 -15 -60 -49 -9 -73 -21 -73 -38 0 -15 21 -26 51 -26 29 0 23 -13 -17 -35 -51 -27 -104 -89 -97 -113 2 -11 0 -29 -6 -40 -16 -31 14 -36 95 -17 37 8 68 14 70 12 2 -2 -8 -19 -22 -38 -14 -19 -30 -42 -35 -51 -19 -34 36 -20 90 23 28 22 51 36 51 31 0 -5 -16 -22 -35 -36 -19 -15 -42 -40 -50 -56 l-15 -30 25 10 c45 17 46 12 5 -52 -43 -66 -53 -114 -22 -105 9 2 26 8 36 13 16 6 18 4 12 -12 -16 -39 -18 -84 -6 -99 8 -10 10 -29 6 -53 -4 -26 -1 -45 8 -57 13 -18 15 -18 41 -1 15 10 53 58 84 107 31 48 62 89 68 89 7 0 19 -13 28 -30 26 -49 58 -41 90 23 14 29 28 77 32 106 5 48 12 59 61 107 87 86 89 70 8 -71 -62 -107 -103 -245 -80 -268 4 -3 35 14 70 39 35 25 64 41 64 36 0 -5 -14 -39 -31 -75 -31 -68 -51 -177 -31 -177 5 0 24 17 41 38 l31 37 -20 -45 c-26 -59 -28 -168 -3 -177 10 -4 24 3 40 21 16 19 23 22 23 12 0 -39 55 5 66 51 3 16 7 32 8 37 1 5 12 -8 24 -28 43 -74 82 -27 81 97 -1 98 9 112 47 58 48 -67 74 -47 49 36 -22 70 -19 81 11 53 21 -21 27 -22 35 -10 5 8 8 25 6 38 -3 16 1 22 14 22 29 0 31 32 9 129 -11 51 -18 96 -15 101 10 17 65 -12 100 -53 20 -23 43 -65 51 -94 13 -45 19 -53 39 -53 13 0 27 5 30 10 11 19 25 10 44 -29 21 -40 74 -91 95 -91 25 0 49 27 50 58 1 36 0 36 25 20 27 -17 51 -3 51 29 0 29 -23 73 -58 110 -17 17 -18 22 -7 27 21 8 19 20 -11 55 -16 19 -43 36 -72 44 -51 15 -38 -5 -144 210 -60 123 -35 130 80 25 152 -142 298 -241 277 -190 -17 41 -16 50 4 57 31 9 27 48 -9 89 -22 24 -26 33 -14 32 21 -1 39 26 31 48 -4 9 -28 30 -54 46 -26 17 -45 30 -42 31 2 0 22 3 44 5 21 3 42 7 44 10 10 10 -16 40 -62 69 -47 31 -58 45 -33 45 8 0 18 5 21 10 14 22 -20 43 -149 90 l-30 11 31 18 c42 26 91 140 75 176 -14 29 -55 34 -83 9 -16 -14 -17 -12 -15 37 0 32 -3 54 -11 56 -6 2 -35 -18 -62 -45 -28 -26 -51 -46 -52 -43 -1 3 0 18 1 33 4 60 -46 92 -68 44 -8 -18 -16 -23 -31 -19 -12 3 -21 1 -21 -3 0 -5 -10 -25 -21 -44 l-21 -35 -17 45 c-12 33 -22 45 -36 45 -17 0 -22 -12 -33 -85 -7 -47 -18 -104 -24 -127 -10 -42 -40 -83 -60 -83 -15 0 -2 90 33 217 67 245 40 436 -81 567 -53 58 -190 129 -190 99z"
       id="path56" />
    <path
       d="M2416 4590 c-88 -44 -138 -120 -139 -209 -1 -163 166 -260 354 -205 129 38 185 140 147 268 -19 62 -91 130 -157 150 -74 22 -156 20 -205 -4z m183 -26 c185 -54 214 -290 44 -348 -63 -22 -167 -20 -218 3 -82 37 -126 123 -104 204 15 58 92 132 151 145 61 14 68 14 127 -4z"
       id="path58" />
    <path
       d="M5470 4514 c-41 -24 -49 -25 -88 -15 -151 39 -311 -19 -407 -149 -58 -80 -87 -157 -93 -252 -4 -77 -5 -77 -37 -88 -66 -22 -144 -125 -145 -190 0 -77 56 -162 134 -202 22 -11 69 -23 104 -26 59 -4 63 -6 58 -26 -33 -118 -31 -317 4 -516 24 -137 24 -150 6 -150 -31 0 -59 41 -102 150 -26 63 -55 127 -66 143 -37 52 -78 23 -78 -56 l0 -31 -57 56 c-59 58 -105 83 -131 73 -23 -9 -9 -140 18 -177 11 -15 19 -28 18 -28 -2 0 -25 7 -52 15 -49 15 -161 20 -190 9 -23 -9 -20 -27 9 -54 14 -13 25 -26 25 -29 0 -3 -17 -7 -38 -9 -39 -2 -85 -30 -90 -54 -1 -8 9 -18 25 -24 l27 -9 -51 -33 c-73 -47 -88 -89 -27 -79 34 6 35 5 20 -12 -9 -10 -16 -21 -16 -24 0 -11 41 -8 97 7 42 11 63 12 117 1 74 -13 81 -17 73 -40 -13 -31 -69 -56 -115 -51 -28 4 -53 1 -72 -9 -16 -8 -53 -15 -83 -15 -30 0 -62 -6 -72 -14 -17 -12 -18 -18 -7 -40 6 -14 16 -26 22 -26 25 0 7 -18 -25 -24 -71 -14 -79 -59 -15 -86 16 -7 30 -14 30 -15 0 -2 -16 -19 -35 -38 -51 -51 -43 -90 10 -54 27 18 145 60 152 54 2 -3 -10 -13 -27 -23 -53 -32 -95 -105 -101 -179 -4 -36 -2 -40 19 -39 12 0 21 -2 19 -5 -41 -74 -49 -107 -44 -186 5 -85 18 -125 42 -125 17 0 78 71 113 130 14 25 27 47 29 50 2 2 19 -12 38 -33 31 -34 36 -36 60 -25 33 15 49 46 65 121 6 31 15 57 19 57 15 0 31 -25 31 -47 0 -59 67 -10 201 148 26 29 50 51 54 47 15 -15 -6 -57 -59 -116 -42 -47 -57 -72 -65 -112 -14 -67 -14 -102 2 -123 11 -17 15 -17 57 -2 24 8 53 23 64 33 20 17 20 17 1 -13 -63 -98 -85 -142 -95 -187 -6 -28 -8 -53 -5 -57 3 -3 19 0 34 6 l29 10 -5 -58 c-5 -48 -2 -63 12 -79 10 -11 26 -20 35 -20 17 0 59 41 105 103 15 21 30 35 33 33 2 -3 5 -42 6 -88 1 -78 2 -83 24 -86 12 -2 22 1 22 7 0 6 5 11 11 11 8 0 9 -14 5 -42 -3 -24 -2 -56 2 -73 8 -27 13 -30 47 -30 37 0 38 -1 52 -50 15 -49 38 -85 55 -85 17 0 48 66 48 104 0 30 3 37 15 32 9 -3 25 4 36 15 17 17 19 28 14 61 l-7 40 32 -17 c30 -15 34 -16 49 -1 10 11 16 34 16 66 0 53 4 57 37 39 28 -15 52 10 50 53 -2 47 -39 165 -69 216 -14 24 -22 46 -19 49 3 3 26 -13 51 -36 50 -46 82 -51 100 -16 7 14 18 19 39 17 28 -3 29 -2 22 30 -7 39 -72 134 -156 233 -61 71 -115 164 -108 186 2 7 26 -6 58 -33 39 -31 72 -72 112 -138 31 -52 62 -95 69 -95 8 0 19 11 27 25 13 24 12 74 -4 182 l-6 43 34 -55 c19 -30 44 -81 57 -113 25 -61 62 -100 87 -90 16 6 44 54 44 75 0 7 5 20 10 28 8 12 15 10 42 -16 38 -36 76 -57 132 -73 69 -18 87 25 41 93 -25 37 -25 56 -1 56 21 0 48 37 44 61 -2 14 -20 35 -45 52 -43 28 -43 28 -28 57 18 35 13 40 -84 65 -94 24 -162 52 -196 81 l-30 26 105 -6 c58 -3 138 -8 177 -12 63 -6 73 -4 79 10 13 34 -13 64 -89 100 -87 41 -203 71 -307 80 -52 5 -86 14 -115 31 -93 55 -96 54 90 49 126 -3 194 1 263 13 99 17 113 26 94 67 -8 19 -6 27 11 44 35 35 15 49 -123 83 l-44 11 23 17 c18 13 22 23 16 40 -9 30 -50 44 -107 36 -27 -3 -48 -4 -48 -1 0 2 23 21 50 41 28 20 50 42 50 49 0 20 -46 36 -100 36 -37 0 -55 5 -70 20 -25 25 -44 17 -104 -39 l-39 -36 7 35 c21 102 21 110 -7 110 -14 0 -29 -5 -32 -10 -4 -7 -12 -7 -25 0 -34 18 -70 11 -101 -19 -16 -16 -29 -37 -29 -45 0 -27 -17 -18 -29 14 -13 38 -32 45 -69 26 -43 -22 -69 -85 -88 -207 -8 -57 -22 -114 -29 -126 -17 -26 -56 -63 -66 -63 -3 0 -9 33 -13 73 -4 39 -14 124 -23 187 -17 127 -14 313 7 392 10 39 17 49 44 57 52 17 156 40 156 34 0 -3 -5 -23 -12 -44 -31 -104 63 -188 175 -158 52 14 77 41 77 84 0 45 -54 106 -123 141 -47 24 -52 25 -138 14 -49 -6 -101 -15 -115 -20 -15 -6 -29 -9 -31 -7 -2 3 8 40 23 83 24 71 26 84 16 132 -19 90 -65 135 -155 151 l-42 7 4 54 c11 178 125 332 280 380 72 23 100 24 154 9 l38 -10 -39 -47 c-53 -64 -62 -83 -62 -134 0 -72 48 -107 128 -95 21 4 48 19 66 37 47 46 43 133 -11 231 -2 4 19 21 47 38 27 17 50 35 50 41 0 19 -55 10 -100 -16z m-15 -118 c37 -56 24 -140 -24 -166 -58 -31 -113 12 -92 71 12 35 77 119 91 119 5 0 17 -11 25 -24z m-457 -425 c46 -23 82 -84 82 -137 0 -22 -15 -75 -33 -119 l-32 -80 -60 0 c-111 0 -195 69 -202 167 -4 46 0 59 26 100 29 45 82 84 100 74 5 -3 12 -20 15 -38 9 -48 42 -98 65 -98 19 0 18 4 -9 63 -17 34 -30 68 -30 75 0 18 35 15 78 -7z m374 -357 c38 -20 69 -64 66 -93 -6 -54 -131 -62 -158 -11 -16 29 -12 91 7 112 17 19 34 18 85 -8z"
       id="path60" />
    <path
       d="M7475 4277 c-29 -63 -42 -175 -26 -232 9 -34 8 -42 -8 -60 -11 -11 -34 -49 -52 -84 -59 -118 -51 -238 27 -393 23 -46 30 -68 21 -68 -15 0 -64 50 -97 100 -33 50 -82 100 -97 100 -7 0 -13 -11 -13 -25 0 -33 -5 -32 -51 10 -22 19 -48 35 -59 35 -17 0 -20 -7 -20 -49 0 -28 -5 -53 -11 -56 -6 -4 -35 -9 -65 -11 -98 -7 -151 -58 -89 -86 l24 -11 -32 -16 c-30 -15 -47 -38 -62 -88 l-6 -23 155 0 c122 0 156 -3 156 -13 0 -9 -16 -14 -47 -16 -123 -5 -241 -38 -251 -68 -2 -9 11 -13 45 -13 l48 0 -49 -45 c-40 -37 -46 -48 -36 -60 10 -12 6 -23 -19 -62 -18 -26 -30 -57 -29 -68 4 -28 42 -31 84 -6 l35 21 -7 -37 c-7 -36 -7 -36 22 -29 36 9 61 31 68 61 3 13 29 42 57 66 l51 43 -7 -33 c-4 -17 -18 -59 -31 -91 -26 -63 -31 -115 -13 -125 6 -4 25 8 42 27 47 50 104 90 122 86 13 -2 3 -18 -37 -63 -68 -75 -88 -105 -88 -128 0 -27 27 -32 71 -12 21 10 42 15 46 11 4 -3 -1 -46 -11 -94 -12 -59 -15 -98 -9 -120 l8 -33 35 30 c19 17 38 30 43 31 12 0 8 -46 -9 -116 -20 -78 -9 -102 29 -66 13 12 26 22 30 22 3 0 5 -21 3 -46 -2 -42 -1 -45 19 -40 19 5 22 1 23 -30 2 -41 8 -54 27 -54 25 0 55 43 74 105 19 60 19 60 32 33 16 -37 23 -35 42 10 25 56 36 120 30 171 -3 32 0 52 10 65 14 19 16 18 36 -22 23 -46 53 -56 71 -23 16 30 12 140 -8 217 -10 39 -15 80 -11 94 8 32 1 65 -23 107 -11 18 -18 42 -16 55 5 35 35 34 56 -2 16 -25 18 -44 14 -99 -3 -49 0 -83 13 -121 18 -56 34 -53 35 5 l1 30 15 -28 c9 -16 21 -61 28 -100 15 -90 37 -102 56 -30 l13 48 26 -57 c35 -75 59 -101 88 -93 17 4 26 -1 37 -24 33 -63 72 -40 63 37 -2 26 -8 54 -11 63 -5 11 -1 18 13 22 26 6 29 63 5 109 l-16 30 41 -7 c37 -6 41 -5 41 15 0 64 -81 151 -202 218 -94 52 -105 78 -28 69 27 -3 82 -16 121 -27 84 -25 150 -30 156 -13 3 7 -9 27 -26 44 -17 17 -31 32 -31 34 0 1 16 6 35 9 19 4 37 11 39 15 3 5 -10 29 -29 54 -21 27 -32 52 -29 61 8 22 -34 36 -106 36 -34 0 -62 5 -66 12 -5 8 -2 9 11 4 11 -4 30 2 51 16 39 26 49 45 34 63 -15 18 -136 57 -188 60 -24 2 -45 5 -48 7 -2 3 23 20 56 38 33 19 60 37 60 42 0 4 -13 8 -30 8 -34 0 -37 6 -14 31 25 28 10 52 -29 47 -17 -3 -41 -9 -51 -13 -12 -5 -17 -5 -13 1 3 6 2 16 -3 24 -8 13 -15 12 -46 -5 -20 -11 -41 -30 -47 -42 -17 -38 -24 -26 -19 32 2 30 1 66 -2 81 -7 26 -7 26 -28 8 -11 -11 -29 -36 -39 -56 -25 -49 -34 -52 -35 -12 -1 44 -9 51 -34 29 -24 -22 -23 -22 -40 38 -8 31 -16 45 -23 38 -12 -12 -10 -122 3 -176 5 -22 10 -66 10 -98 0 -49 -4 -62 -25 -83 -14 -14 -31 -24 -38 -22 -21 6 -95 167 -107 234 -7 36 -9 85 -5 112 7 51 42 133 74 172 l20 25 23 -21 c36 -33 92 -48 131 -35 107 36 132 186 37 220 -43 14 -89 -2 -138 -51 -23 -22 -45 -38 -48 -35 -4 3 -6 40 -6 82 1 59 7 89 26 130 13 29 22 56 18 59 -13 14 -25 3 -47 -47z m193 -183 c25 -17 30 -68 9 -94 -41 -53 -100 -63 -143 -27 -32 28 -26 44 36 100 44 41 64 45 98 21z"
       id="path62" />
    <path
       d="M2228 4136 c-60 -21 -82 -40 -111 -94 -31 -58 -57 -202 -57 -324 0 -71 -2 -78 -20 -78 -22 0 -61 53 -81 114 -8 22 -34 61 -58 88 -49 55 -71 52 -71 -8 0 -19 -4 -34 -10 -34 -5 0 -10 5 -10 10 0 6 -5 10 -12 10 -7 0 -25 12 -40 27 -50 48 -60 7 -21 -93 4 -10 -6 -9 -38 6 -48 21 -79 26 -79 11 0 -6 23 -29 50 -53 l50 -43 -76 -5 c-99 -6 -115 -24 -67 -72 l32 -32 -61 -25 c-34 -14 -63 -31 -65 -37 -2 -6 10 -17 27 -24 l30 -13 -49 -22 c-52 -24 -68 -40 -51 -50 5 -3 7 -17 4 -31 -5 -20 -2 -26 15 -31 20 -5 19 -6 -10 -34 -64 -60 -4 -56 136 10 44 21 110 52 148 69 37 18 70 32 72 32 3 0 5 -11 5 -25 0 -29 -49 -64 -125 -89 -27 -9 -56 -20 -64 -25 -22 -14 -1 -33 34 -29 19 1 37 0 40 -4 3 -3 -19 -31 -51 -61 -55 -53 -65 -85 -23 -74 20 5 26 -7 9 -18 -13 -8 -35 -53 -44 -89 -6 -24 -4 -28 11 -24 48 14 47 14 44 -24 -3 -41 13 -78 33 -78 9 0 12 -8 8 -25 -5 -30 17 -35 25 -6 3 14 13 19 31 18 21 -2 30 5 42 30 19 41 29 41 37 3 3 -16 9 -30 14 -30 13 0 49 76 49 105 0 18 7 28 25 35 28 11 34 29 38 120 2 64 2 65 16 35 9 -19 16 -80 19 -163 5 -147 11 -156 51 -77 21 39 26 44 32 29 31 -83 63 -154 69 -154 4 0 14 10 23 23 15 22 15 22 22 -16 14 -73 85 -96 85 -27 0 23 3 27 24 23 20 -4 25 0 31 25 4 19 0 44 -9 67 -21 49 -20 58 3 45 52 -27 68 7 31 67 l-19 32 24 -11 c13 -6 31 -8 40 -4 21 8 8 34 -50 98 -25 28 -52 73 -67 115 -14 37 -24 69 -23 71 2 2 25 -12 52 -31 62 -44 143 -87 165 -87 16 0 16 3 3 40 -8 22 -26 61 -41 86 l-27 47 61 -48 c58 -45 82 -51 82 -19 0 11 9 8 37 -11 21 -14 43 -25 50 -25 18 0 25 18 14 37 -7 13 -5 23 6 35 15 17 15 20 -2 38 -10 11 -26 22 -37 26 -19 6 -19 6 1 21 12 8 21 19 21 24 0 14 -64 39 -100 39 -51 0 -33 18 25 25 30 4 62 13 71 20 15 11 10 15 -42 35 -82 31 -160 37 -220 16 -27 -9 -52 -12 -57 -7 -14 14 73 43 176 57 57 7 110 20 125 30 l27 18 -33 8 c-17 5 -32 13 -32 19 0 5 -12 14 -26 19 -22 9 -24 13 -14 25 26 32 -22 38 -74 10 -44 -24 -57 -13 -26 20 32 34 17 48 -59 53 -56 4 -61 6 -76 38 -23 49 -35 52 -66 14 -30 -35 -59 -36 -59 0 0 25 -17 27 -24 3 -3 -10 -5 -56 -4 -102 2 -81 2 -84 -27 -109 -26 -22 -30 -23 -33 -8 -6 27 28 271 44 326 27 90 93 140 183 140 36 0 41 15 9 24 -32 8 -48 7 -90 -8z"
       id="path64" />
  </g>
  <path
     style="fill:#a26585;stroke:#a26585;stroke-width:220;stroke-linecap:round;stroke-linejoin:round"
     d="m -9.2344692,103.63126 c 0,0 80.6887942,-78.059677 83.1102202,50.27656 1.026047,54.38076 251.382769,-104.657319 287.294589,-28.72946 36.8299,77.86894 103.73768,-58.491001 204.18437,-30.781567 59.51102,16.416837 92.50748,56.015367 154.93387,38.989977 56.43286,-15.39079 91.31867,26.67736 158.01205,-17.44288 66.69337,-44.120243 44.61411,128.36444 95.42284,99.52705 76.02643,-90.78071 56.60823,-48.82497 71.82363,-251.382764 l -1068.120246,-8.208417 3.078157,135.438873 z"
     id="path997"
     />
</svg>
